<?xml version="1.0" encoding="utf-8" standalone="no"?>
<!DOCTYPE svg PUBLIC "-//W3C//DTD SVG 1.1//EN"
  "http://www.w3.org/Graphics/SVG/1.1/DTD/svg11.dtd">
<!-- Created with matplotlib (https://matplotlib.org/) -->
<svg height="418.804334pt" version="1.1" viewBox="0 0 407.574687 418.804334" width="407.574687pt" xmlns="http://www.w3.org/2000/svg" xmlns:xlink="http://www.w3.org/1999/xlink">
 <metadata>
  <rdf:RDF xmlns:cc="http://creativecommons.org/ns#" xmlns:dc="http://purl.org/dc/elements/1.1/" xmlns:rdf="http://www.w3.org/1999/02/22-rdf-syntax-ns#">
   <cc:Work>
    <dc:type rdf:resource="http://purl.org/dc/dcmitype/StillImage"/>
    <dc:date>2022-02-01T10:00:32.426999</dc:date>
    <dc:format>image/svg+xml</dc:format>
    <dc:creator>
     <cc:Agent>
      <dc:title>Matplotlib v3.3.4, https://matplotlib.org/</dc:title>
     </cc:Agent>
    </dc:creator>
   </cc:Work>
  </rdf:RDF>
 </metadata>
 <defs>
  <style type="text/css">*{stroke-linecap:butt;stroke-linejoin:round;}</style>
 </defs>
 <g id="figure_1">
  <g id="patch_1">
   <path d="M 0 418.804334 
L 407.574687 418.804334 
L 407.574687 0 
L 0 0 
z
" style="fill:none;"/>
  </g>
  <g id="axes_1">
   <g id="patch_2">
    <path d="M 89.902188 342.041994 
L 381.427188 342.041994 
L 381.427188 79.086614 
L 89.902188 79.086614 
z
" style="fill:#ffffff;"/>
   </g>
   <g id="matplotlib.axis_1">
    <g id="xtick_1">
     <g id="line2d_1">
      <defs>
       <path d="M 0 0 
L 0 10 
" id="mabe141ac77" style="stroke:#000000;stroke-width:2;"/>
      </defs>
      <g>
       <use style="stroke:#000000;stroke-width:2;" x="121.787734" xlink:href="#mabe141ac77" y="342.041994"/>
      </g>
     </g>
     <g id="text_1">
      <!-- OV -->
      <g transform="translate(98.803891 389.050059)rotate(-45)scale(0.18 -0.18)">
       <defs>
        <path d="M 42.484375 60.59375 
Q 33.890625 60.59375 29.15625 54.25 
Q 24.421875 47.90625 24.421875 36.375 
Q 24.421875 24.90625 29.15625 18.546875 
Q 33.890625 12.203125 42.484375 12.203125 
Q 51.125 12.203125 55.859375 18.546875 
Q 60.59375 24.90625 60.59375 36.375 
Q 60.59375 47.90625 55.859375 54.25 
Q 51.125 60.59375 42.484375 60.59375 
z
M 42.484375 74.21875 
Q 60.0625 74.21875 70.015625 64.15625 
Q 79.984375 54.109375 79.984375 36.375 
Q 79.984375 18.703125 70.015625 8.640625 
Q 60.0625 -1.421875 42.484375 -1.421875 
Q 24.953125 -1.421875 14.96875 8.640625 
Q 4.984375 18.703125 4.984375 36.375 
Q 4.984375 54.109375 14.96875 64.15625 
Q 24.953125 74.21875 42.484375 74.21875 
z
" id="DejaVuSans-Bold-79"/>
        <path d="M 0.484375 72.90625 
L 19.390625 72.90625 
L 38.71875 19.09375 
L 58.015625 72.90625 
L 76.90625 72.90625 
L 49.90625 0 
L 27.484375 0 
z
" id="DejaVuSans-Bold-86"/>
       </defs>
       <use xlink:href="#DejaVuSans-Bold-79"/>
       <use x="82.384766" xlink:href="#DejaVuSans-Bold-86"/>
      </g>
     </g>
    </g>
    <g id="xtick_2">
     <g id="line2d_2">
      <g>
       <use style="stroke:#000000;stroke-width:2;" x="167.338516" xlink:href="#mabe141ac77" y="342.041994"/>
      </g>
     </g>
     <g id="text_2">
      <!-- LUSC -->
      <g transform="translate(128.200155 405.204576)rotate(-45)scale(0.18 -0.18)">
       <defs>
        <path d="M 9.1875 72.90625 
L 27.984375 72.90625 
L 27.984375 14.203125 
L 60.984375 14.203125 
L 60.984375 0 
L 9.1875 0 
z
" id="DejaVuSans-Bold-76"/>
        <path d="M 9.1875 72.90625 
L 27.984375 72.90625 
L 27.984375 29.203125 
Q 27.984375 20.171875 30.9375 16.28125 
Q 33.890625 12.40625 40.578125 12.40625 
Q 47.3125 12.40625 50.265625 16.28125 
Q 53.21875 20.171875 53.21875 29.203125 
L 53.21875 72.90625 
L 72.015625 72.90625 
L 72.015625 29.203125 
Q 72.015625 13.71875 64.25 6.140625 
Q 56.5 -1.421875 40.578125 -1.421875 
Q 24.703125 -1.421875 16.9375 6.140625 
Q 9.1875 13.71875 9.1875 29.203125 
z
" id="DejaVuSans-Bold-85"/>
        <path d="M 59.90625 70.609375 
L 59.90625 55.171875 
Q 53.90625 57.859375 48.1875 59.21875 
Q 42.484375 60.59375 37.40625 60.59375 
Q 30.671875 60.59375 27.4375 58.734375 
Q 24.21875 56.890625 24.21875 52.984375 
Q 24.21875 50.046875 26.390625 48.40625 
Q 28.5625 46.78125 34.28125 45.609375 
L 42.28125 44 
Q 54.4375 41.546875 59.5625 36.5625 
Q 64.703125 31.59375 64.703125 22.40625 
Q 64.703125 10.359375 57.546875 4.46875 
Q 50.390625 -1.421875 35.6875 -1.421875 
Q 28.765625 -1.421875 21.78125 -0.09375 
Q 14.796875 1.21875 7.8125 3.8125 
L 7.8125 19.671875 
Q 14.796875 15.96875 21.3125 14.078125 
Q 27.828125 12.203125 33.890625 12.203125 
Q 40.046875 12.203125 43.3125 14.25 
Q 46.578125 16.3125 46.578125 20.125 
Q 46.578125 23.53125 44.359375 25.390625 
Q 42.140625 27.25 35.5 28.71875 
L 28.21875 30.328125 
Q 17.28125 32.671875 12.21875 37.796875 
Q 7.171875 42.921875 7.171875 51.609375 
Q 7.171875 62.5 14.203125 68.359375 
Q 21.234375 74.21875 34.421875 74.21875 
Q 40.4375 74.21875 46.78125 73.3125 
Q 53.125 72.40625 59.90625 70.609375 
z
" id="DejaVuSans-Bold-83"/>
        <path d="M 67 4 
Q 61.8125 1.3125 56.203125 -0.046875 
Q 50.59375 -1.421875 44.484375 -1.421875 
Q 26.265625 -1.421875 15.625 8.765625 
Q 4.984375 18.953125 4.984375 36.375 
Q 4.984375 53.859375 15.625 64.03125 
Q 26.265625 74.21875 44.484375 74.21875 
Q 50.59375 74.21875 56.203125 72.84375 
Q 61.8125 71.484375 67 68.796875 
L 67 53.71875 
Q 61.765625 57.28125 56.6875 58.9375 
Q 51.609375 60.59375 46 60.59375 
Q 35.9375 60.59375 30.171875 54.140625 
Q 24.421875 47.703125 24.421875 36.375 
Q 24.421875 25.09375 30.171875 18.640625 
Q 35.9375 12.203125 46 12.203125 
Q 51.609375 12.203125 56.6875 13.859375 
Q 61.765625 15.53125 67 19.09375 
z
" id="DejaVuSans-Bold-67"/>
       </defs>
       <use xlink:href="#DejaVuSans-Bold-76"/>
       <use x="60.095703" xlink:href="#DejaVuSans-Bold-85"/>
       <use x="141.296875" xlink:href="#DejaVuSans-Bold-83"/>
       <use x="213.318359" xlink:href="#DejaVuSans-Bold-67"/>
      </g>
     </g>
    </g>
    <g id="xtick_3">
     <g id="line2d_3">
      <g>
       <use style="stroke:#000000;stroke-width:2;" x="212.889297" xlink:href="#mabe141ac77" y="342.041994"/>
      </g>
     </g>
     <g id="text_3">
      <!-- READ -->
      <g transform="translate(171.330643 407.62487)rotate(-45)scale(0.18 -0.18)">
       <defs>
        <path d="M 35.890625 40.578125 
Q 41.796875 40.578125 44.359375 42.765625 
Q 46.921875 44.96875 46.921875 50 
Q 46.921875 54.984375 44.359375 57.125 
Q 41.796875 59.28125 35.890625 59.28125 
L 27.984375 59.28125 
L 27.984375 40.578125 
z
M 27.984375 27.59375 
L 27.984375 0 
L 9.1875 0 
L 9.1875 72.90625 
L 37.890625 72.90625 
Q 52.296875 72.90625 59 68.0625 
Q 65.71875 63.234375 65.71875 52.78125 
Q 65.71875 45.5625 62.21875 40.921875 
Q 58.734375 36.28125 51.703125 34.078125 
Q 55.5625 33.203125 58.609375 30.09375 
Q 61.671875 27 64.796875 20.703125 
L 75 0 
L 54.984375 0 
L 46.09375 18.109375 
Q 43.40625 23.578125 40.640625 25.578125 
Q 37.890625 27.59375 33.296875 27.59375 
z
" id="DejaVuSans-Bold-82"/>
        <path d="M 9.1875 72.90625 
L 59.90625 72.90625 
L 59.90625 58.6875 
L 27.984375 58.6875 
L 27.984375 45.125 
L 58.015625 45.125 
L 58.015625 30.90625 
L 27.984375 30.90625 
L 27.984375 14.203125 
L 60.984375 14.203125 
L 60.984375 0 
L 9.1875 0 
z
" id="DejaVuSans-Bold-69"/>
        <path d="M 53.421875 13.28125 
L 24.03125 13.28125 
L 19.390625 0 
L 0.484375 0 
L 27.484375 72.90625 
L 49.90625 72.90625 
L 76.90625 0 
L 58.015625 0 
z
M 28.71875 26.8125 
L 48.6875 26.8125 
L 38.71875 55.8125 
z
" id="DejaVuSans-Bold-65"/>
        <path d="M 27.984375 58.6875 
L 27.984375 14.203125 
L 34.71875 14.203125 
Q 46.234375 14.203125 52.3125 19.921875 
Q 58.40625 25.640625 58.40625 36.53125 
Q 58.40625 47.359375 52.34375 53.015625 
Q 46.296875 58.6875 34.71875 58.6875 
z
M 9.1875 72.90625 
L 29 72.90625 
Q 45.609375 72.90625 53.734375 70.53125 
Q 61.859375 68.171875 67.671875 62.5 
Q 72.796875 57.5625 75.28125 51.109375 
Q 77.78125 44.671875 77.78125 36.53125 
Q 77.78125 28.265625 75.28125 21.796875 
Q 72.796875 15.328125 67.671875 10.40625 
Q 61.8125 4.734375 53.609375 2.359375 
Q 45.40625 0 29 0 
L 9.1875 0 
z
" id="DejaVuSans-Bold-68"/>
       </defs>
       <use xlink:href="#DejaVuSans-Bold-82"/>
       <use x="77.001953" xlink:href="#DejaVuSans-Bold-69"/>
       <use x="145.3125" xlink:href="#DejaVuSans-Bold-65"/>
       <use x="222.705078" xlink:href="#DejaVuSans-Bold-68"/>
      </g>
     </g>
    </g>
    <g id="xtick_4">
     <g id="line2d_4">
      <g>
       <use style="stroke:#000000;stroke-width:2;" x="258.440078" xlink:href="#mabe141ac77" y="342.041994"/>
      </g>
     </g>
     <g id="text_4">
      <!-- BRCA -->
      <g transform="translate(217.100185 407.406109)rotate(-45)scale(0.18 -0.18)">
       <defs>
        <path d="M 38.375 44.671875 
Q 42.828125 44.671875 45.109375 46.625 
Q 47.40625 48.578125 47.40625 52.390625 
Q 47.40625 56.15625 45.109375 58.125 
Q 42.828125 60.109375 38.375 60.109375 
L 27.984375 60.109375 
L 27.984375 44.671875 
z
M 39.015625 12.796875 
Q 44.671875 12.796875 47.53125 15.1875 
Q 50.390625 17.578125 50.390625 22.40625 
Q 50.390625 27.15625 47.5625 29.515625 
Q 44.734375 31.890625 39.015625 31.890625 
L 27.984375 31.890625 
L 27.984375 12.796875 
z
M 56.5 39.015625 
Q 62.546875 37.25 65.859375 32.515625 
Q 69.1875 27.78125 69.1875 20.90625 
Q 69.1875 10.359375 62.0625 5.171875 
Q 54.9375 0 40.375 0 
L 9.1875 0 
L 9.1875 72.90625 
L 37.40625 72.90625 
Q 52.59375 72.90625 59.40625 68.3125 
Q 66.21875 63.71875 66.21875 53.609375 
Q 66.21875 48.296875 63.71875 44.5625 
Q 61.234375 40.828125 56.5 39.015625 
z
" id="DejaVuSans-Bold-66"/>
       </defs>
       <use xlink:href="#DejaVuSans-Bold-66"/>
       <use x="76.220703" xlink:href="#DejaVuSans-Bold-82"/>
       <use x="153.222656" xlink:href="#DejaVuSans-Bold-67"/>
       <use x="226.611328" xlink:href="#DejaVuSans-Bold-65"/>
      </g>
     </g>
    </g>
    <g id="xtick_5">
     <g id="line2d_5">
      <g>
       <use style="stroke:#000000;stroke-width:2;" x="303.990859" xlink:href="#mabe141ac77" y="342.041994"/>
      </g>
     </g>
     <g id="text_5">
      <!-- COAD -->
      <g transform="translate(261.099751 408.957324)rotate(-45)scale(0.18 -0.18)">
       <use xlink:href="#DejaVuSans-Bold-67"/>
       <use x="73.388672" xlink:href="#DejaVuSans-Bold-79"/>
       <use x="155.773438" xlink:href="#DejaVuSans-Bold-65"/>
       <use x="233.166016" xlink:href="#DejaVuSans-Bold-68"/>
      </g>
     </g>
    </g>
    <g id="xtick_6">
     <g id="line2d_6">
      <g>
       <use style="stroke:#000000;stroke-width:2;" x="349.541641" xlink:href="#mabe141ac77" y="342.041994"/>
      </g>
     </g>
     <g id="text_6">
      <!-- LUAD -->
      <g transform="translate(308.89184 406.716017)rotate(-45)scale(0.18 -0.18)">
       <use xlink:href="#DejaVuSans-Bold-76"/>
       <use x="60.095703" xlink:href="#DejaVuSans-Bold-85"/>
       <use x="138.171875" xlink:href="#DejaVuSans-Bold-65"/>
       <use x="215.564453" xlink:href="#DejaVuSans-Bold-68"/>
      </g>
     </g>
    </g>
   </g>
   <g id="matplotlib.axis_2">
    <g id="ytick_1">
     <g id="line2d_7">
      <defs>
       <path d="M 0 0 
L -10 0 
" id="m43daa5483b" style="stroke:#000000;stroke-width:2;"/>
      </defs>
      <g>
       <use style="stroke:#000000;stroke-width:2;" x="89.902188" xlink:href="#m43daa5483b" y="342.041994"/>
      </g>
     </g>
     <g id="text_7">
      <!-- 0.000 -->
      <g transform="translate(28.620625 347.3609)scale(0.14 -0.14)">
       <defs>
        <path d="M 46 36.53125 
Q 46 50.203125 43.4375 55.78125 
Q 40.875 61.375 34.8125 61.375 
Q 28.765625 61.375 26.171875 55.78125 
Q 23.578125 50.203125 23.578125 36.53125 
Q 23.578125 22.703125 26.171875 17.03125 
Q 28.765625 11.375 34.8125 11.375 
Q 40.828125 11.375 43.40625 17.03125 
Q 46 22.703125 46 36.53125 
z
M 64.796875 36.375 
Q 64.796875 18.265625 56.984375 8.421875 
Q 49.171875 -1.421875 34.8125 -1.421875 
Q 20.40625 -1.421875 12.59375 8.421875 
Q 4.78125 18.265625 4.78125 36.375 
Q 4.78125 54.546875 12.59375 64.375 
Q 20.40625 74.21875 34.8125 74.21875 
Q 49.171875 74.21875 56.984375 64.375 
Q 64.796875 54.546875 64.796875 36.375 
z
" id="DejaVuSans-Bold-48"/>
        <path d="M 10.203125 18.890625 
L 27.78125 18.890625 
L 27.78125 0 
L 10.203125 0 
z
" id="DejaVuSans-Bold-46"/>
       </defs>
       <use xlink:href="#DejaVuSans-Bold-48"/>
       <use x="69.580078" xlink:href="#DejaVuSans-Bold-46"/>
       <use x="107.568359" xlink:href="#DejaVuSans-Bold-48"/>
       <use x="177.148438" xlink:href="#DejaVuSans-Bold-48"/>
       <use x="246.728516" xlink:href="#DejaVuSans-Bold-48"/>
      </g>
     </g>
    </g>
    <g id="ytick_2">
     <g id="line2d_8">
      <g>
       <use style="stroke:#000000;stroke-width:2;" x="89.902188" xlink:href="#m43daa5483b" y="289.450918"/>
      </g>
     </g>
     <g id="text_8">
      <!-- 0.001 -->
      <g transform="translate(28.620625 294.769824)scale(0.14 -0.14)">
       <defs>
        <path d="M 11.71875 12.984375 
L 28.328125 12.984375 
L 28.328125 60.109375 
L 11.28125 56.59375 
L 11.28125 69.390625 
L 28.21875 72.90625 
L 46.09375 72.90625 
L 46.09375 12.984375 
L 62.703125 12.984375 
L 62.703125 0 
L 11.71875 0 
z
" id="DejaVuSans-Bold-49"/>
       </defs>
       <use xlink:href="#DejaVuSans-Bold-48"/>
       <use x="69.580078" xlink:href="#DejaVuSans-Bold-46"/>
       <use x="107.568359" xlink:href="#DejaVuSans-Bold-48"/>
       <use x="177.148438" xlink:href="#DejaVuSans-Bold-48"/>
       <use x="246.728516" xlink:href="#DejaVuSans-Bold-49"/>
      </g>
     </g>
    </g>
    <g id="ytick_3">
     <g id="line2d_9">
      <g>
       <use style="stroke:#000000;stroke-width:2;" x="89.902188" xlink:href="#m43daa5483b" y="236.859842"/>
      </g>
     </g>
     <g id="text_9">
      <!-- 0.002 -->
      <g transform="translate(28.620625 242.178748)scale(0.14 -0.14)">
       <defs>
        <path d="M 28.8125 13.8125 
L 60.890625 13.8125 
L 60.890625 0 
L 7.90625 0 
L 7.90625 13.8125 
L 34.515625 37.3125 
Q 38.09375 40.53125 39.796875 43.609375 
Q 41.5 46.6875 41.5 50 
Q 41.5 55.125 38.0625 58.25 
Q 34.625 61.375 28.90625 61.375 
Q 24.515625 61.375 19.28125 59.5 
Q 14.0625 57.625 8.109375 53.90625 
L 8.109375 69.921875 
Q 14.453125 72.015625 20.65625 73.109375 
Q 26.859375 74.21875 32.8125 74.21875 
Q 45.90625 74.21875 53.15625 68.453125 
Q 60.40625 62.703125 60.40625 52.390625 
Q 60.40625 46.4375 57.328125 41.28125 
Q 54.25 36.140625 44.390625 27.484375 
z
" id="DejaVuSans-Bold-50"/>
       </defs>
       <use xlink:href="#DejaVuSans-Bold-48"/>
       <use x="69.580078" xlink:href="#DejaVuSans-Bold-46"/>
       <use x="107.568359" xlink:href="#DejaVuSans-Bold-48"/>
       <use x="177.148438" xlink:href="#DejaVuSans-Bold-48"/>
       <use x="246.728516" xlink:href="#DejaVuSans-Bold-50"/>
      </g>
     </g>
    </g>
    <g id="ytick_4">
     <g id="line2d_10">
      <g>
       <use style="stroke:#000000;stroke-width:2;" x="89.902188" xlink:href="#m43daa5483b" y="184.268766"/>
      </g>
     </g>
     <g id="text_10">
      <!-- 0.003 -->
      <g transform="translate(28.620625 189.587672)scale(0.14 -0.14)">
       <defs>
        <path d="M 46.578125 39.3125 
Q 53.953125 37.40625 57.78125 32.6875 
Q 61.625 27.984375 61.625 20.703125 
Q 61.625 9.859375 53.3125 4.21875 
Q 45.015625 -1.421875 29.109375 -1.421875 
Q 23.484375 -1.421875 17.84375 -0.515625 
Q 12.203125 0.390625 6.6875 2.203125 
L 6.6875 16.703125 
Q 11.96875 14.0625 17.15625 12.71875 
Q 22.359375 11.375 27.390625 11.375 
Q 34.859375 11.375 38.84375 13.953125 
Q 42.828125 16.546875 42.828125 21.390625 
Q 42.828125 26.375 38.75 28.9375 
Q 34.671875 31.5 26.703125 31.5 
L 19.1875 31.5 
L 19.1875 43.609375 
L 27.09375 43.609375 
Q 34.1875 43.609375 37.640625 45.828125 
Q 41.109375 48.046875 41.109375 52.59375 
Q 41.109375 56.78125 37.734375 59.078125 
Q 34.375 61.375 28.21875 61.375 
Q 23.6875 61.375 19.046875 60.34375 
Q 14.40625 59.328125 9.8125 57.328125 
L 9.8125 71.09375 
Q 15.375 72.65625 20.84375 73.4375 
Q 26.3125 74.21875 31.59375 74.21875 
Q 45.796875 74.21875 52.84375 69.546875 
Q 59.90625 64.890625 59.90625 55.515625 
Q 59.90625 49.125 56.53125 45.046875 
Q 53.171875 40.96875 46.578125 39.3125 
z
" id="DejaVuSans-Bold-51"/>
       </defs>
       <use xlink:href="#DejaVuSans-Bold-48"/>
       <use x="69.580078" xlink:href="#DejaVuSans-Bold-46"/>
       <use x="107.568359" xlink:href="#DejaVuSans-Bold-48"/>
       <use x="177.148438" xlink:href="#DejaVuSans-Bold-48"/>
       <use x="246.728516" xlink:href="#DejaVuSans-Bold-51"/>
      </g>
     </g>
    </g>
    <g id="ytick_5">
     <g id="line2d_11">
      <g>
       <use style="stroke:#000000;stroke-width:2;" x="89.902188" xlink:href="#m43daa5483b" y="131.67769"/>
      </g>
     </g>
     <g id="text_11">
      <!-- 0.004 -->
      <g transform="translate(28.620625 136.996596)scale(0.14 -0.14)">
       <defs>
        <path d="M 36.8125 57.421875 
L 16.21875 26.90625 
L 36.8125 26.90625 
z
M 33.6875 72.90625 
L 54.59375 72.90625 
L 54.59375 26.90625 
L 64.984375 26.90625 
L 64.984375 13.28125 
L 54.59375 13.28125 
L 54.59375 0 
L 36.8125 0 
L 36.8125 13.28125 
L 4.5 13.28125 
L 4.5 29.390625 
z
" id="DejaVuSans-Bold-52"/>
       </defs>
       <use xlink:href="#DejaVuSans-Bold-48"/>
       <use x="69.580078" xlink:href="#DejaVuSans-Bold-46"/>
       <use x="107.568359" xlink:href="#DejaVuSans-Bold-48"/>
       <use x="177.148438" xlink:href="#DejaVuSans-Bold-48"/>
       <use x="246.728516" xlink:href="#DejaVuSans-Bold-52"/>
      </g>
     </g>
    </g>
    <g id="ytick_6">
     <g id="line2d_12">
      <g>
       <use style="stroke:#000000;stroke-width:2;" x="89.902188" xlink:href="#m43daa5483b" y="79.086614"/>
      </g>
     </g>
     <g id="text_12">
      <!-- 0.005 -->
      <g transform="translate(28.620625 84.40552)scale(0.14 -0.14)">
       <defs>
        <path d="M 10.59375 72.90625 
L 57.328125 72.90625 
L 57.328125 59.078125 
L 25.59375 59.078125 
L 25.59375 47.796875 
Q 27.734375 48.390625 29.90625 48.703125 
Q 32.078125 49.03125 34.421875 49.03125 
Q 47.75 49.03125 55.171875 42.359375 
Q 62.59375 35.6875 62.59375 23.78125 
Q 62.59375 11.96875 54.515625 5.265625 
Q 46.4375 -1.421875 32.078125 -1.421875 
Q 25.875 -1.421875 19.796875 -0.21875 
Q 13.71875 0.984375 7.71875 3.421875 
L 7.71875 18.21875 
Q 13.671875 14.796875 19.015625 13.078125 
Q 24.359375 11.375 29.109375 11.375 
Q 35.9375 11.375 39.859375 14.71875 
Q 43.796875 18.0625 43.796875 23.78125 
Q 43.796875 29.546875 39.859375 32.859375 
Q 35.9375 36.1875 29.109375 36.1875 
Q 25.046875 36.1875 20.453125 35.125 
Q 15.875 34.078125 10.59375 31.890625 
z
" id="DejaVuSans-Bold-53"/>
       </defs>
       <use xlink:href="#DejaVuSans-Bold-48"/>
       <use x="69.580078" xlink:href="#DejaVuSans-Bold-46"/>
       <use x="107.568359" xlink:href="#DejaVuSans-Bold-48"/>
       <use x="177.148438" xlink:href="#DejaVuSans-Bold-48"/>
       <use x="246.728516" xlink:href="#DejaVuSans-Bold-53"/>
      </g>
     </g>
    </g>
    <g id="text_13">
     <!-- Convex Hull (volume) -->
     <g transform="translate(20.877187 319.163366)rotate(-90)scale(0.18 -0.18)">
      <defs>
       <path d="M 34.421875 43.5 
Q 28.609375 43.5 25.5625 39.328125 
Q 22.515625 35.15625 22.515625 27.296875 
Q 22.515625 19.4375 25.5625 15.25 
Q 28.609375 11.078125 34.421875 11.078125 
Q 40.140625 11.078125 43.15625 15.25 
Q 46.1875 19.4375 46.1875 27.296875 
Q 46.1875 35.15625 43.15625 39.328125 
Q 40.140625 43.5 34.421875 43.5 
z
M 34.421875 56 
Q 48.53125 56 56.46875 48.375 
Q 64.40625 40.765625 64.40625 27.296875 
Q 64.40625 13.8125 56.46875 6.1875 
Q 48.53125 -1.421875 34.421875 -1.421875 
Q 20.265625 -1.421875 12.28125 6.1875 
Q 4.296875 13.8125 4.296875 27.296875 
Q 4.296875 40.765625 12.28125 48.375 
Q 20.265625 56 34.421875 56 
z
" id="DejaVuSans-Bold-111"/>
       <path d="M 63.375 33.296875 
L 63.375 0 
L 45.796875 0 
L 45.796875 5.421875 
L 45.796875 25.484375 
Q 45.796875 32.5625 45.484375 35.25 
Q 45.171875 37.9375 44.390625 39.203125 
Q 43.359375 40.921875 41.59375 41.875 
Q 39.84375 42.828125 37.59375 42.828125 
Q 32.125 42.828125 29 38.59375 
Q 25.875 34.375 25.875 26.90625 
L 25.875 0 
L 8.40625 0 
L 8.40625 54.6875 
L 25.875 54.6875 
L 25.875 46.6875 
Q 29.828125 51.46875 34.265625 53.734375 
Q 38.71875 56 44.09375 56 
Q 53.5625 56 58.46875 50.1875 
Q 63.375 44.390625 63.375 33.296875 
z
" id="DejaVuSans-Bold-110"/>
       <path d="M 1.515625 54.6875 
L 19 54.6875 
L 32.625 16.890625 
L 46.1875 54.6875 
L 63.71875 54.6875 
L 42.1875 0 
L 23 0 
z
" id="DejaVuSans-Bold-118"/>
       <path d="M 62.984375 27.484375 
L 62.984375 22.515625 
L 22.125 22.515625 
Q 22.75 16.359375 26.5625 13.28125 
Q 30.375 10.203125 37.203125 10.203125 
Q 42.71875 10.203125 48.5 11.84375 
Q 54.296875 13.484375 60.40625 16.796875 
L 60.40625 3.328125 
Q 54.203125 0.984375 48 -0.21875 
Q 41.796875 -1.421875 35.59375 -1.421875 
Q 20.75 -1.421875 12.515625 6.125 
Q 4.296875 13.671875 4.296875 27.296875 
Q 4.296875 40.671875 12.375 48.328125 
Q 20.453125 56 34.625 56 
Q 47.515625 56 55.25 48.234375 
Q 62.984375 40.484375 62.984375 27.484375 
z
M 45.015625 33.296875 
Q 45.015625 38.28125 42.109375 41.328125 
Q 39.203125 44.390625 34.515625 44.390625 
Q 29.4375 44.390625 26.265625 41.53125 
Q 23.09375 38.671875 22.3125 33.296875 
z
" id="DejaVuSans-Bold-101"/>
       <path d="M 22.21875 27.984375 
L 2.484375 54.6875 
L 21 54.6875 
L 32.171875 38.484375 
L 43.5 54.6875 
L 62.015625 54.6875 
L 42.28125 28.078125 
L 62.984375 0 
L 44.484375 0 
L 32.171875 17.28125 
L 20.015625 0 
L 1.515625 0 
z
" id="DejaVuSans-Bold-120"/>
       <path id="DejaVuSans-Bold-32"/>
       <path d="M 9.1875 72.90625 
L 27.984375 72.90625 
L 27.984375 45.125 
L 55.71875 45.125 
L 55.71875 72.90625 
L 74.515625 72.90625 
L 74.515625 0 
L 55.71875 0 
L 55.71875 30.90625 
L 27.984375 30.90625 
L 27.984375 0 
L 9.1875 0 
z
" id="DejaVuSans-Bold-72"/>
       <path d="M 7.8125 21.296875 
L 7.8125 54.6875 
L 25.390625 54.6875 
L 25.390625 49.21875 
Q 25.390625 44.78125 25.34375 38.0625 
Q 25.296875 31.34375 25.296875 29.109375 
Q 25.296875 22.515625 25.640625 19.609375 
Q 25.984375 16.703125 26.8125 15.375 
Q 27.875 13.671875 29.609375 12.734375 
Q 31.34375 11.8125 33.59375 11.8125 
Q 39.0625 11.8125 42.1875 16.015625 
Q 45.3125 20.21875 45.3125 27.6875 
L 45.3125 54.6875 
L 62.796875 54.6875 
L 62.796875 0 
L 45.3125 0 
L 45.3125 7.90625 
Q 41.359375 3.125 36.9375 0.84375 
Q 32.515625 -1.421875 27.203125 -1.421875 
Q 17.71875 -1.421875 12.765625 4.390625 
Q 7.8125 10.203125 7.8125 21.296875 
z
" id="DejaVuSans-Bold-117"/>
       <path d="M 8.40625 75.984375 
L 25.875 75.984375 
L 25.875 0 
L 8.40625 0 
z
" id="DejaVuSans-Bold-108"/>
       <path d="M 37.703125 -13.1875 
L 23.1875 -13.1875 
Q 15.71875 -1.125 12.15625 9.734375 
Q 8.59375 20.609375 8.59375 31.296875 
Q 8.59375 42 12.171875 52.953125 
Q 15.765625 63.921875 23.1875 75.875 
L 37.703125 75.875 
Q 31.453125 64.3125 28.328125 53.25 
Q 25.203125 42.1875 25.203125 31.390625 
Q 25.203125 20.609375 28.296875 9.515625 
Q 31.390625 -1.5625 37.703125 -13.1875 
z
" id="DejaVuSans-Bold-40"/>
       <path d="M 59.078125 45.609375 
Q 62.40625 50.6875 66.96875 53.34375 
Q 71.53125 56 77 56 
Q 86.421875 56 91.359375 50.1875 
Q 96.296875 44.390625 96.296875 33.296875 
L 96.296875 0 
L 78.71875 0 
L 78.71875 28.515625 
Q 78.765625 29.15625 78.78125 29.828125 
Q 78.8125 30.515625 78.8125 31.78125 
Q 78.8125 37.59375 77.09375 40.203125 
Q 75.390625 42.828125 71.578125 42.828125 
Q 66.609375 42.828125 63.890625 38.71875 
Q 61.1875 34.625 61.078125 26.859375 
L 61.078125 0 
L 43.5 0 
L 43.5 28.515625 
Q 43.5 37.59375 41.9375 40.203125 
Q 40.375 42.828125 36.375 42.828125 
Q 31.34375 42.828125 28.609375 38.703125 
Q 25.875 34.578125 25.875 26.90625 
L 25.875 0 
L 8.296875 0 
L 8.296875 54.6875 
L 25.875 54.6875 
L 25.875 46.6875 
Q 29.109375 51.3125 33.28125 53.65625 
Q 37.453125 56 42.484375 56 
Q 48.140625 56 52.484375 53.265625 
Q 56.84375 50.53125 59.078125 45.609375 
z
" id="DejaVuSans-Bold-109"/>
       <path d="M 8.015625 -13.1875 
Q 14.265625 -1.5625 17.390625 9.515625 
Q 20.515625 20.609375 20.515625 31.390625 
Q 20.515625 42.1875 17.390625 53.25 
Q 14.265625 64.3125 8.015625 75.875 
L 22.515625 75.875 
Q 29.9375 63.921875 33.515625 52.953125 
Q 37.109375 42 37.109375 31.296875 
Q 37.109375 20.609375 33.546875 9.734375 
Q 29.984375 -1.125 22.515625 -13.1875 
z
" id="DejaVuSans-Bold-41"/>
      </defs>
      <use xlink:href="#DejaVuSans-Bold-67"/>
      <use x="73.388672" xlink:href="#DejaVuSans-Bold-111"/>
      <use x="142.089844" xlink:href="#DejaVuSans-Bold-110"/>
      <use x="213.28125" xlink:href="#DejaVuSans-Bold-118"/>
      <use x="278.466797" xlink:href="#DejaVuSans-Bold-101"/>
      <use x="346.289062" xlink:href="#DejaVuSans-Bold-120"/>
      <use x="410.791016" xlink:href="#DejaVuSans-Bold-32"/>
      <use x="445.605469" xlink:href="#DejaVuSans-Bold-72"/>
      <use x="529.296875" xlink:href="#DejaVuSans-Bold-117"/>
      <use x="600.488281" xlink:href="#DejaVuSans-Bold-108"/>
      <use x="634.765625" xlink:href="#DejaVuSans-Bold-108"/>
      <use x="669.042969" xlink:href="#DejaVuSans-Bold-32"/>
      <use x="703.857422" xlink:href="#DejaVuSans-Bold-40"/>
      <use x="749.560547" xlink:href="#DejaVuSans-Bold-118"/>
      <use x="814.746094" xlink:href="#DejaVuSans-Bold-111"/>
      <use x="883.447266" xlink:href="#DejaVuSans-Bold-108"/>
      <use x="917.724609" xlink:href="#DejaVuSans-Bold-117"/>
      <use x="988.916016" xlink:href="#DejaVuSans-Bold-109"/>
      <use x="1093.115234" xlink:href="#DejaVuSans-Bold-101"/>
      <use x="1160.9375" xlink:href="#DejaVuSans-Bold-41"/>
     </g>
    </g>
   </g>
   <g id="patch_3">
    <path clip-path="url(#p2d846a37b1)" d="M 103.749625 341.502632 
L 121.605531 341.502632 
L 121.605531 341.441285 
L 103.749625 341.441285 
L 103.749625 341.502632 
z
" style="fill:#d3d3d3;stroke:#4c4c4c;stroke-linejoin:miter;stroke-width:1.75;"/>
   </g>
   <g id="patch_4">
    <path clip-path="url(#p2d846a37b1)" d="M 121.969938 338.589347 
L 139.825844 338.589347 
L 139.825844 254.427008 
L 121.969938 254.427008 
L 121.969938 338.589347 
z
" style="fill:#cb3335;stroke:#4c4c4c;stroke-linejoin:miter;stroke-width:1.75;"/>
   </g>
   <g id="patch_5">
    <path clip-path="url(#p2d846a37b1)" d="M 149.300406 339.840522 
L 167.156313 339.840522 
L 167.156313 339.82635 
L 149.300406 339.82635 
L 149.300406 339.840522 
z
" style="fill:#d3d3d3;stroke:#4c4c4c;stroke-linejoin:miter;stroke-width:1.75;"/>
   </g>
   <g id="patch_6">
    <path clip-path="url(#p2d846a37b1)" d="M 167.520719 338.396682 
L 185.376625 338.396682 
L 185.376625 231.794461 
L 167.520719 231.794461 
L 167.520719 338.396682 
z
" style="fill:#cb3335;stroke:#4c4c4c;stroke-linejoin:miter;stroke-width:1.75;"/>
   </g>
   <g id="patch_7">
    <path clip-path="url(#p2d846a37b1)" d="M 194.851188 341.268838 
L 212.707094 341.268838 
L 212.707094 340.844992 
L 194.851188 340.844992 
L 194.851188 341.268838 
z
" style="fill:#d3d3d3;stroke:#4c4c4c;stroke-linejoin:miter;stroke-width:1.75;"/>
   </g>
   <g id="patch_8">
    <path clip-path="url(#p2d846a37b1)" d="M 213.0715 335.60121 
L 230.927406 335.60121 
L 230.927406 253.764189 
L 213.0715 253.764189 
L 213.0715 335.60121 
z
" style="fill:#cb3335;stroke:#4c4c4c;stroke-linejoin:miter;stroke-width:1.75;"/>
   </g>
   <g id="patch_9">
    <path clip-path="url(#p2d846a37b1)" d="M 240.401969 340.93168 
L 258.257875 340.93168 
L 258.257875 340.889247 
L 240.401969 340.889247 
L 240.401969 340.93168 
z
" style="fill:#d3d3d3;stroke:#4c4c4c;stroke-linejoin:miter;stroke-width:1.75;"/>
   </g>
   <g id="patch_10">
    <path clip-path="url(#p2d846a37b1)" d="M 258.622281 338.396682 
L 276.478187 338.396682 
L 276.478187 241.522026 
L 258.622281 241.522026 
L 258.622281 338.396682 
z
" style="fill:#cb3335;stroke:#4c4c4c;stroke-linejoin:miter;stroke-width:1.75;"/>
   </g>
   <g id="patch_11">
    <path clip-path="url(#p2d846a37b1)" d="M 285.95275 257.301 
L 303.808656 257.301 
L 303.808656 255.471173 
L 285.95275 255.471173 
L 285.95275 257.301 
z
" style="fill:#d3d3d3;stroke:#4c4c4c;stroke-linejoin:miter;stroke-width:1.75;"/>
   </g>
   <g id="patch_12">
    <path clip-path="url(#p2d846a37b1)" d="M 304.173063 253.764189 
L 322.028969 253.764189 
L 322.028969 231.794461 
L 304.173063 231.794461 
L 304.173063 253.764189 
z
" style="fill:#cb3335;stroke:#4c4c4c;stroke-linejoin:miter;stroke-width:1.75;"/>
   </g>
   <g id="patch_13">
    <path clip-path="url(#p2d846a37b1)" d="M 331.503531 145.928128 
L 349.359438 145.928128 
L 349.359438 145.889937 
L 331.503531 145.889937 
L 331.503531 145.928128 
z
" style="fill:#d3d3d3;stroke:#4c4c4c;stroke-linejoin:miter;stroke-width:1.75;"/>
   </g>
   <g id="patch_14">
    <path clip-path="url(#p2d846a37b1)" d="M 349.723844 143.041879 
L 367.57975 143.041879 
L 367.57975 119.878176 
L 349.723844 119.878176 
L 349.723844 143.041879 
z
" style="fill:#cb3335;stroke:#4c4c4c;stroke-linejoin:miter;stroke-width:1.75;"/>
   </g>
   <g id="patch_15">
    <path clip-path="url(#p2d846a37b1)" d="M 121.787734 342.041994 
L 121.787734 342.041994 
L 121.787734 342.041994 
L 121.787734 342.041994 
z
" style="fill:#d3d3d3;stroke:#4c4c4c;stroke-linejoin:miter;stroke-width:0.875;"/>
   </g>
   <g id="patch_16">
    <path clip-path="url(#p2d846a37b1)" d="M 121.787734 342.041994 
L 121.787734 342.041994 
L 121.787734 342.041994 
L 121.787734 342.041994 
z
" style="fill:#cb3335;stroke:#4c4c4c;stroke-linejoin:miter;stroke-width:0.875;"/>
   </g>
   <g id="line2d_13">
    <path clip-path="url(#p2d846a37b1)" d="M 112.677578 341.502632 
L 112.677578 341.58766 
" style="fill:none;stroke:#4c4c4c;stroke-linecap:round;stroke-width:1.75;"/>
   </g>
   <g id="line2d_14">
    <path clip-path="url(#p2d846a37b1)" d="M 112.677578 341.441285 
L 112.677578 341.417237 
" style="fill:none;stroke:#4c4c4c;stroke-linecap:round;stroke-width:1.75;"/>
   </g>
   <g id="line2d_15">
    <path clip-path="url(#p2d846a37b1)" d="M 108.213602 341.58766 
L 117.141555 341.58766 
" style="fill:none;stroke:#4c4c4c;stroke-linecap:round;stroke-width:1.75;"/>
   </g>
   <g id="line2d_16">
    <path clip-path="url(#p2d846a37b1)" d="M 108.213602 341.417237 
L 117.141555 341.417237 
" style="fill:none;stroke:#4c4c4c;stroke-linecap:round;stroke-width:1.75;"/>
   </g>
   <g id="line2d_17"/>
   <g id="line2d_18">
    <path clip-path="url(#p2d846a37b1)" d="M 130.897891 338.589347 
L 130.897891 339.333577 
" style="fill:none;stroke:#4c4c4c;stroke-linecap:round;stroke-width:1.75;"/>
   </g>
   <g id="line2d_19">
    <path clip-path="url(#p2d846a37b1)" d="M 130.897891 254.427008 
L 130.897891 145.889937 
" style="fill:none;stroke:#4c4c4c;stroke-linecap:round;stroke-width:1.75;"/>
   </g>
   <g id="line2d_20">
    <path clip-path="url(#p2d846a37b1)" d="M 126.433914 339.333577 
L 135.361867 339.333577 
" style="fill:none;stroke:#4c4c4c;stroke-linecap:round;stroke-width:1.75;"/>
   </g>
   <g id="line2d_21">
    <path clip-path="url(#p2d846a37b1)" d="M 126.433914 145.889937 
L 135.361867 145.889937 
" style="fill:none;stroke:#4c4c4c;stroke-linecap:round;stroke-width:1.75;"/>
   </g>
   <g id="line2d_22"/>
   <g id="line2d_23">
    <path clip-path="url(#p2d846a37b1)" d="M 158.228359 339.840522 
L 158.228359 339.860214 
" style="fill:none;stroke:#4c4c4c;stroke-linecap:round;stroke-width:1.75;"/>
   </g>
   <g id="line2d_24">
    <path clip-path="url(#p2d846a37b1)" d="M 158.228359 339.82635 
L 158.228359 339.82635 
" style="fill:none;stroke:#4c4c4c;stroke-linecap:round;stroke-width:1.75;"/>
   </g>
   <g id="line2d_25">
    <path clip-path="url(#p2d846a37b1)" d="M 153.764383 339.860214 
L 162.692336 339.860214 
" style="fill:none;stroke:#4c4c4c;stroke-linecap:round;stroke-width:1.75;"/>
   </g>
   <g id="line2d_26">
    <path clip-path="url(#p2d846a37b1)" d="M 153.764383 339.82635 
L 162.692336 339.82635 
" style="fill:none;stroke:#4c4c4c;stroke-linecap:round;stroke-width:1.75;"/>
   </g>
   <g id="line2d_27">
    <defs>
     <path d="M -0 3.535534 
L 2.12132 0 
L -0 -3.535534 
L -2.12132 -0 
z
" id="m5473f25239" style="stroke:#4c4c4c;stroke-linejoin:miter;"/>
    </defs>
    <g clip-path="url(#p2d846a37b1)">
     <use style="fill:#4c4c4c;stroke:#4c4c4c;stroke-linejoin:miter;" x="158.228359" xlink:href="#m5473f25239" y="340.441114"/>
     <use style="fill:#4c4c4c;stroke:#4c4c4c;stroke-linejoin:miter;" x="158.228359" xlink:href="#m5473f25239" y="340.058391"/>
     <use style="fill:#4c4c4c;stroke:#4c4c4c;stroke-linejoin:miter;" x="158.228359" xlink:href="#m5473f25239" y="340.036435"/>
    </g>
   </g>
   <g id="line2d_28">
    <path clip-path="url(#p2d846a37b1)" d="M 176.448672 338.396682 
L 176.448672 338.589347 
" style="fill:none;stroke:#4c4c4c;stroke-linecap:round;stroke-width:1.75;"/>
   </g>
   <g id="line2d_29">
    <path clip-path="url(#p2d846a37b1)" d="M 176.448672 231.794461 
L 176.448672 119.878176 
" style="fill:none;stroke:#4c4c4c;stroke-linecap:round;stroke-width:1.75;"/>
   </g>
   <g id="line2d_30">
    <path clip-path="url(#p2d846a37b1)" d="M 171.984695 338.589347 
L 180.912648 338.589347 
" style="fill:none;stroke:#4c4c4c;stroke-linecap:round;stroke-width:1.75;"/>
   </g>
   <g id="line2d_31">
    <path clip-path="url(#p2d846a37b1)" d="M 171.984695 119.878176 
L 180.912648 119.878176 
" style="fill:none;stroke:#4c4c4c;stroke-linecap:round;stroke-width:1.75;"/>
   </g>
   <g id="line2d_32"/>
   <g id="line2d_33">
    <path clip-path="url(#p2d846a37b1)" d="M 203.779141 341.268838 
L 203.779141 341.69651 
" style="fill:none;stroke:#4c4c4c;stroke-linecap:round;stroke-width:1.75;"/>
   </g>
   <g id="line2d_34">
    <path clip-path="url(#p2d846a37b1)" d="M 203.779141 340.844992 
L 203.779141 340.636681 
" style="fill:none;stroke:#4c4c4c;stroke-linecap:round;stroke-width:1.75;"/>
   </g>
   <g id="line2d_35">
    <path clip-path="url(#p2d846a37b1)" d="M 199.315164 341.69651 
L 208.243117 341.69651 
" style="fill:none;stroke:#4c4c4c;stroke-linecap:round;stroke-width:1.75;"/>
   </g>
   <g id="line2d_36">
    <path clip-path="url(#p2d846a37b1)" d="M 199.315164 340.636681 
L 208.243117 340.636681 
" style="fill:none;stroke:#4c4c4c;stroke-linecap:round;stroke-width:1.75;"/>
   </g>
   <g id="line2d_37"/>
   <g id="line2d_38">
    <path clip-path="url(#p2d846a37b1)" d="M 221.999453 335.60121 
L 221.999453 337.307659 
" style="fill:none;stroke:#4c4c4c;stroke-linecap:round;stroke-width:1.75;"/>
   </g>
   <g id="line2d_39">
    <path clip-path="url(#p2d846a37b1)" d="M 221.999453 253.764189 
L 221.999453 143.041879 
" style="fill:none;stroke:#4c4c4c;stroke-linecap:round;stroke-width:1.75;"/>
   </g>
   <g id="line2d_40">
    <path clip-path="url(#p2d846a37b1)" d="M 217.535477 337.307659 
L 226.46343 337.307659 
" style="fill:none;stroke:#4c4c4c;stroke-linecap:round;stroke-width:1.75;"/>
   </g>
   <g id="line2d_41">
    <path clip-path="url(#p2d846a37b1)" d="M 217.535477 143.041879 
L 226.46343 143.041879 
" style="fill:none;stroke:#4c4c4c;stroke-linecap:round;stroke-width:1.75;"/>
   </g>
   <g id="line2d_42"/>
   <g id="line2d_43">
    <path clip-path="url(#p2d846a37b1)" d="M 249.329922 340.93168 
L 249.329922 340.991174 
" style="fill:none;stroke:#4c4c4c;stroke-linecap:round;stroke-width:1.75;"/>
   </g>
   <g id="line2d_44">
    <path clip-path="url(#p2d846a37b1)" d="M 249.329922 340.889247 
L 249.329922 340.889247 
" style="fill:none;stroke:#4c4c4c;stroke-linecap:round;stroke-width:1.75;"/>
   </g>
   <g id="line2d_45">
    <path clip-path="url(#p2d846a37b1)" d="M 244.865945 340.991174 
L 253.793898 340.991174 
" style="fill:none;stroke:#4c4c4c;stroke-linecap:round;stroke-width:1.75;"/>
   </g>
   <g id="line2d_46">
    <path clip-path="url(#p2d846a37b1)" d="M 244.865945 340.889247 
L 253.793898 340.889247 
" style="fill:none;stroke:#4c4c4c;stroke-linecap:round;stroke-width:1.75;"/>
   </g>
   <g id="line2d_47">
    <g clip-path="url(#p2d846a37b1)">
     <use style="fill:#4c4c4c;stroke:#4c4c4c;stroke-linejoin:miter;" x="249.329922" xlink:href="#m5473f25239" y="341.717229"/>
     <use style="fill:#4c4c4c;stroke:#4c4c4c;stroke-linejoin:miter;" x="249.329922" xlink:href="#m5473f25239" y="341.093682"/>
    </g>
   </g>
   <g id="line2d_48">
    <path clip-path="url(#p2d846a37b1)" d="M 267.550234 338.396682 
L 267.550234 339.333577 
" style="fill:none;stroke:#4c4c4c;stroke-linecap:round;stroke-width:1.75;"/>
   </g>
   <g id="line2d_49">
    <path clip-path="url(#p2d846a37b1)" d="M 267.550234 241.522026 
L 267.550234 121.709991 
" style="fill:none;stroke:#4c4c4c;stroke-linecap:round;stroke-width:1.75;"/>
   </g>
   <g id="line2d_50">
    <path clip-path="url(#p2d846a37b1)" d="M 263.086258 339.333577 
L 272.014211 339.333577 
" style="fill:none;stroke:#4c4c4c;stroke-linecap:round;stroke-width:1.75;"/>
   </g>
   <g id="line2d_51">
    <path clip-path="url(#p2d846a37b1)" d="M 263.086258 121.709991 
L 272.014211 121.709991 
" style="fill:none;stroke:#4c4c4c;stroke-linecap:round;stroke-width:1.75;"/>
   </g>
   <g id="line2d_52"/>
   <g id="line2d_53">
    <path clip-path="url(#p2d846a37b1)" d="M 294.880703 257.301 
L 294.880703 259.659362 
" style="fill:none;stroke:#4c4c4c;stroke-linecap:round;stroke-width:1.75;"/>
   </g>
   <g id="line2d_54">
    <path clip-path="url(#p2d846a37b1)" d="M 294.880703 255.471173 
L 294.880703 255.471173 
" style="fill:none;stroke:#4c4c4c;stroke-linecap:round;stroke-width:1.75;"/>
   </g>
   <g id="line2d_55">
    <path clip-path="url(#p2d846a37b1)" d="M 290.416727 259.659362 
L 299.34468 259.659362 
" style="fill:none;stroke:#4c4c4c;stroke-linecap:round;stroke-width:1.75;"/>
   </g>
   <g id="line2d_56">
    <path clip-path="url(#p2d846a37b1)" d="M 290.416727 255.471173 
L 299.34468 255.471173 
" style="fill:none;stroke:#4c4c4c;stroke-linecap:round;stroke-width:1.75;"/>
   </g>
   <g id="line2d_57">
    <g clip-path="url(#p2d846a37b1)">
     <use style="fill:#4c4c4c;stroke:#4c4c4c;stroke-linejoin:miter;" x="294.880703" xlink:href="#m5473f25239" y="276.677704"/>
     <use style="fill:#4c4c4c;stroke:#4c4c4c;stroke-linejoin:miter;" x="294.880703" xlink:href="#m5473f25239" y="269.712892"/>
     <use style="fill:#4c4c4c;stroke:#4c4c4c;stroke-linejoin:miter;" x="294.880703" xlink:href="#m5473f25239" y="262.268817"/>
     <use style="fill:#4c4c4c;stroke:#4c4c4c;stroke-linejoin:miter;" x="294.880703" xlink:href="#m5473f25239" y="274.776202"/>
    </g>
   </g>
   <g id="line2d_58">
    <path clip-path="url(#p2d846a37b1)" d="M 313.101016 253.764189 
L 313.101016 254.427008 
" style="fill:none;stroke:#4c4c4c;stroke-linecap:round;stroke-width:1.75;"/>
   </g>
   <g id="line2d_59">
    <path clip-path="url(#p2d846a37b1)" d="M 313.101016 231.794461 
L 313.101016 231.794461 
" style="fill:none;stroke:#4c4c4c;stroke-linecap:round;stroke-width:1.75;"/>
   </g>
   <g id="line2d_60">
    <path clip-path="url(#p2d846a37b1)" d="M 308.637039 254.427008 
L 317.564992 254.427008 
" style="fill:none;stroke:#4c4c4c;stroke-linecap:round;stroke-width:1.75;"/>
   </g>
   <g id="line2d_61">
    <path clip-path="url(#p2d846a37b1)" d="M 308.637039 231.794461 
L 317.564992 231.794461 
" style="fill:none;stroke:#4c4c4c;stroke-linecap:round;stroke-width:1.75;"/>
   </g>
   <g id="line2d_62">
    <g clip-path="url(#p2d846a37b1)">
     <use style="fill:#4c4c4c;stroke:#4c4c4c;stroke-linejoin:miter;" x="313.101016" xlink:href="#m5473f25239" y="118.014761"/>
    </g>
   </g>
   <g id="line2d_63">
    <path clip-path="url(#p2d846a37b1)" d="M 340.431484 145.928128 
L 340.431484 145.948673 
" style="fill:none;stroke:#4c4c4c;stroke-linecap:round;stroke-width:1.75;"/>
   </g>
   <g id="line2d_64">
    <path clip-path="url(#p2d846a37b1)" d="M 340.431484 145.889937 
L 340.431484 145.889937 
" style="fill:none;stroke:#4c4c4c;stroke-linecap:round;stroke-width:1.75;"/>
   </g>
   <g id="line2d_65">
    <path clip-path="url(#p2d846a37b1)" d="M 335.967508 145.948673 
L 344.895461 145.948673 
" style="fill:none;stroke:#4c4c4c;stroke-linecap:round;stroke-width:1.75;"/>
   </g>
   <g id="line2d_66">
    <path clip-path="url(#p2d846a37b1)" d="M 335.967508 145.889937 
L 344.895461 145.889937 
" style="fill:none;stroke:#4c4c4c;stroke-linecap:round;stroke-width:1.75;"/>
   </g>
   <g id="line2d_67">
    <g clip-path="url(#p2d846a37b1)">
     <use style="fill:#4c4c4c;stroke:#4c4c4c;stroke-linejoin:miter;" x="340.431484" xlink:href="#m5473f25239" y="172.394674"/>
     <use style="fill:#4c4c4c;stroke:#4c4c4c;stroke-linejoin:miter;" x="340.431484" xlink:href="#m5473f25239" y="146.793308"/>
     <use style="fill:#4c4c4c;stroke:#4c4c4c;stroke-linejoin:miter;" x="340.431484" xlink:href="#m5473f25239" y="153.840741"/>
     <use style="fill:#4c4c4c;stroke:#4c4c4c;stroke-linejoin:miter;" x="340.431484" xlink:href="#m5473f25239" y="146.538786"/>
     <use style="fill:#4c4c4c;stroke:#4c4c4c;stroke-linejoin:miter;" x="340.431484" xlink:href="#m5473f25239" y="146.920835"/>
     <use style="fill:#4c4c4c;stroke:#4c4c4c;stroke-linejoin:miter;" x="340.431484" xlink:href="#m5473f25239" y="146.571274"/>
     <use style="fill:#4c4c4c;stroke:#4c4c4c;stroke-linejoin:miter;" x="340.431484" xlink:href="#m5473f25239" y="148.549036"/>
     <use style="fill:#4c4c4c;stroke:#4c4c4c;stroke-linejoin:miter;" x="340.431484" xlink:href="#m5473f25239" y="147.344728"/>
     <use style="fill:#4c4c4c;stroke:#4c4c4c;stroke-linejoin:miter;" x="340.431484" xlink:href="#m5473f25239" y="146.425224"/>
     <use style="fill:#4c4c4c;stroke:#4c4c4c;stroke-linejoin:miter;" x="340.431484" xlink:href="#m5473f25239" y="146.07874"/>
     <use style="fill:#4c4c4c;stroke:#4c4c4c;stroke-linejoin:miter;" x="340.431484" xlink:href="#m5473f25239" y="146.092665"/>
     <use style="fill:#4c4c4c;stroke:#4c4c4c;stroke-linejoin:miter;" x="340.431484" xlink:href="#m5473f25239" y="152.272813"/>
     <use style="fill:#4c4c4c;stroke:#4c4c4c;stroke-linejoin:miter;" x="340.431484" xlink:href="#m5473f25239" y="147.439208"/>
     <use style="fill:#4c4c4c;stroke:#4c4c4c;stroke-linejoin:miter;" x="340.431484" xlink:href="#m5473f25239" y="146.16603"/>
     <use style="fill:#4c4c4c;stroke:#4c4c4c;stroke-linejoin:miter;" x="340.431484" xlink:href="#m5473f25239" y="149.752826"/>
     <use style="fill:#4c4c4c;stroke:#4c4c4c;stroke-linejoin:miter;" x="340.431484" xlink:href="#m5473f25239" y="146.233844"/>
     <use style="fill:#4c4c4c;stroke:#4c4c4c;stroke-linejoin:miter;" x="340.431484" xlink:href="#m5473f25239" y="151.521217"/>
    </g>
   </g>
   <g id="line2d_68">
    <path clip-path="url(#p2d846a37b1)" d="M 358.651797 143.041879 
L 358.651797 145.889937 
" style="fill:none;stroke:#4c4c4c;stroke-linecap:round;stroke-width:1.75;"/>
   </g>
   <g id="line2d_69">
    <path clip-path="url(#p2d846a37b1)" d="M 358.651797 119.878176 
L 358.651797 118.014761 
" style="fill:none;stroke:#4c4c4c;stroke-linecap:round;stroke-width:1.75;"/>
   </g>
   <g id="line2d_70">
    <path clip-path="url(#p2d846a37b1)" d="M 354.18782 145.889937 
L 363.115773 145.889937 
" style="fill:none;stroke:#4c4c4c;stroke-linecap:round;stroke-width:1.75;"/>
   </g>
   <g id="line2d_71">
    <path clip-path="url(#p2d846a37b1)" d="M 354.18782 118.014761 
L 363.115773 118.014761 
" style="fill:none;stroke:#4c4c4c;stroke-linecap:round;stroke-width:1.75;"/>
   </g>
   <g id="line2d_72"/>
   <g id="line2d_73">
    <path clip-path="url(#p2d846a37b1)" d="M 112.677578 118.014761 
L 112.677578 118.014761 
L 130.897891 118.014761 
L 130.897891 118.014761 
" style="fill:none;stroke:#000000;stroke-linecap:round;stroke-width:1.5;"/>
   </g>
   <g id="line2d_74">
    <path clip-path="url(#p2d846a37b1)" d="M 158.228359 118.014761 
L 158.228359 118.014761 
L 176.448672 118.014761 
L 176.448672 118.014761 
" style="fill:none;stroke:#000000;stroke-linecap:round;stroke-width:1.5;"/>
   </g>
   <g id="line2d_75">
    <path clip-path="url(#p2d846a37b1)" d="M 203.779141 118.014761 
L 203.779141 118.014761 
L 221.999453 118.014761 
L 221.999453 118.014761 
" style="fill:none;stroke:#000000;stroke-linecap:round;stroke-width:1.5;"/>
   </g>
   <g id="line2d_76">
    <path clip-path="url(#p2d846a37b1)" d="M 249.329922 118.014761 
L 249.329922 118.014761 
L 267.550234 118.014761 
L 267.550234 118.014761 
" style="fill:none;stroke:#000000;stroke-linecap:round;stroke-width:1.5;"/>
   </g>
   <g id="line2d_77">
    <path clip-path="url(#p2d846a37b1)" d="M 294.880703 118.014761 
L 294.880703 118.014761 
L 313.101016 118.014761 
L 313.101016 118.014761 
" style="fill:none;stroke:#000000;stroke-linecap:round;stroke-width:1.5;"/>
   </g>
   <g id="line2d_78">
    <path clip-path="url(#p2d846a37b1)" d="M 340.431484 118.014761 
L 340.431484 118.014761 
L 358.651797 118.014761 
L 358.651797 118.014761 
" style="fill:none;stroke:#000000;stroke-linecap:round;stroke-width:1.5;"/>
   </g>
   <g id="line2d_79">
    <path clip-path="url(#p2d846a37b1)" d="M 103.749625 341.469142 
L 121.605531 341.469142 
" style="fill:none;stroke:#4c4c4c;stroke-linecap:round;stroke-width:1.75;"/>
   </g>
   <g id="line2d_80">
    <path clip-path="url(#p2d846a37b1)" d="M 121.969938 337.307659 
L 139.825844 337.307659 
" style="fill:none;stroke:#4c4c4c;stroke-linecap:round;stroke-width:1.75;"/>
   </g>
   <g id="line2d_81">
    <path clip-path="url(#p2d846a37b1)" d="M 149.300406 339.826362 
L 167.156313 339.826362 
" style="fill:none;stroke:#4c4c4c;stroke-linecap:round;stroke-width:1.75;"/>
   </g>
   <g id="line2d_82">
    <path clip-path="url(#p2d846a37b1)" d="M 167.520719 331.817197 
L 185.376625 331.817197 
" style="fill:none;stroke:#4c4c4c;stroke-linecap:round;stroke-width:1.75;"/>
   </g>
   <g id="line2d_83">
    <path clip-path="url(#p2d846a37b1)" d="M 194.851188 340.924333 
L 212.707094 340.924333 
" style="fill:none;stroke:#4c4c4c;stroke-linecap:round;stroke-width:1.75;"/>
   </g>
   <g id="line2d_84">
    <path clip-path="url(#p2d846a37b1)" d="M 213.0715 331.817197 
L 230.927406 331.817197 
" style="fill:none;stroke:#4c4c4c;stroke-linecap:round;stroke-width:1.75;"/>
   </g>
   <g id="line2d_85">
    <path clip-path="url(#p2d846a37b1)" d="M 240.401969 340.895584 
L 258.257875 340.895584 
" style="fill:none;stroke:#4c4c4c;stroke-linecap:round;stroke-width:1.75;"/>
   </g>
   <g id="line2d_86">
    <path clip-path="url(#p2d846a37b1)" d="M 258.622281 335.60121 
L 276.478187 335.60121 
" style="fill:none;stroke:#4c4c4c;stroke-linecap:round;stroke-width:1.75;"/>
   </g>
   <g id="line2d_87">
    <path clip-path="url(#p2d846a37b1)" d="M 285.95275 255.471173 
L 303.808656 255.471173 
" style="fill:none;stroke:#4c4c4c;stroke-linecap:round;stroke-width:1.75;"/>
   </g>
   <g id="line2d_88">
    <path clip-path="url(#p2d846a37b1)" d="M 304.173063 241.522026 
L 322.028969 241.522026 
" style="fill:none;stroke:#4c4c4c;stroke-linecap:round;stroke-width:1.75;"/>
   </g>
   <g id="line2d_89">
    <path clip-path="url(#p2d846a37b1)" d="M 331.503531 145.889937 
L 349.359438 145.889937 
" style="fill:none;stroke:#4c4c4c;stroke-linecap:round;stroke-width:1.75;"/>
   </g>
   <g id="line2d_90">
    <path clip-path="url(#p2d846a37b1)" d="M 349.723844 121.709991 
L 367.57975 121.709991 
" style="fill:none;stroke:#4c4c4c;stroke-linecap:round;stroke-width:1.75;"/>
   </g>
   <g id="patch_17">
    <path d="M 89.902188 342.041994 
L 89.902188 79.086614 
" style="fill:none;stroke:#000000;stroke-linecap:square;stroke-linejoin:miter;stroke-width:3;"/>
   </g>
   <g id="text_14">
    <!-- * -->
    <g transform="translate(118.126953 115.103199)scale(0.14 -0.14)">
     <defs>
      <path d="M 50.296875 59.421875 
L 34.1875 50.984375 
L 50.296875 42.484375 
L 46.578125 35.59375 
L 30.328125 44.578125 
L 30.328125 27.78125 
L 22.015625 27.78125 
L 22.015625 44.578125 
L 5.71875 35.59375 
L 2 42.484375 
L 18.3125 50.984375 
L 2 59.421875 
L 5.71875 66.3125 
L 22.015625 57.421875 
L 22.015625 74.21875 
L 30.328125 74.21875 
L 30.328125 57.421875 
L 46.578125 66.3125 
z
" id="DejaVuSans-Bold-42"/>
     </defs>
     <use xlink:href="#DejaVuSans-Bold-42"/>
    </g>
   </g>
   <g id="text_15">
    <!-- * -->
    <g transform="translate(163.677734 115.103199)scale(0.14 -0.14)">
     <use xlink:href="#DejaVuSans-Bold-42"/>
    </g>
   </g>
   <g id="text_16">
    <!-- * -->
    <g transform="translate(209.228516 115.103199)scale(0.14 -0.14)">
     <use xlink:href="#DejaVuSans-Bold-42"/>
    </g>
   </g>
   <g id="text_17">
    <!-- * -->
    <g transform="translate(254.779297 115.103199)scale(0.14 -0.14)">
     <use xlink:href="#DejaVuSans-Bold-42"/>
    </g>
   </g>
   <g id="text_18">
    <!-- * -->
    <g transform="translate(300.330078 115.103199)scale(0.14 -0.14)">
     <use xlink:href="#DejaVuSans-Bold-42"/>
    </g>
   </g>
   <g id="text_19">
    <!-- * -->
    <g transform="translate(345.880859 115.103199)scale(0.14 -0.14)">
     <use xlink:href="#DejaVuSans-Bold-42"/>
    </g>
   </g>
   <g id="legend_1">
    <g id="patch_18">
     <path d="M 44.197188 23.437812 
L 72.197188 23.437812 
L 72.197188 13.637812 
L 44.197188 13.637812 
z
" style="fill:#d3d3d3;stroke:#4c4c4c;stroke-linejoin:miter;stroke-width:0.875;"/>
    </g>
    <g id="text_20">
     <!-- Within Cancer Type Tumor vs. NAT -->
     <g style="fill:#262626;" transform="translate(83.397188 23.437812)scale(0.14 -0.14)">
      <defs>
       <path d="M 2.984375 72.90625 
L 21 72.90625 
L 33.59375 19.921875 
L 46.09375 72.90625 
L 64.203125 72.90625 
L 76.703125 19.921875 
L 89.3125 72.90625 
L 107.171875 72.90625 
L 89.984375 0 
L 68.3125 0 
L 55.078125 55.421875 
L 42 0 
L 20.3125 0 
z
" id="DejaVuSans-Bold-87"/>
       <path d="M 8.40625 54.6875 
L 25.875 54.6875 
L 25.875 0 
L 8.40625 0 
z
M 8.40625 75.984375 
L 25.875 75.984375 
L 25.875 61.71875 
L 8.40625 61.71875 
z
" id="DejaVuSans-Bold-105"/>
       <path d="M 27.484375 70.21875 
L 27.484375 54.6875 
L 45.515625 54.6875 
L 45.515625 42.1875 
L 27.484375 42.1875 
L 27.484375 19 
Q 27.484375 15.1875 29 13.84375 
Q 30.515625 12.5 35.015625 12.5 
L 44 12.5 
L 44 0 
L 29 0 
Q 18.65625 0 14.328125 4.3125 
Q 10.015625 8.640625 10.015625 19 
L 10.015625 42.1875 
L 1.3125 42.1875 
L 1.3125 54.6875 
L 10.015625 54.6875 
L 10.015625 70.21875 
z
" id="DejaVuSans-Bold-116"/>
       <path d="M 63.375 33.296875 
L 63.375 0 
L 45.796875 0 
L 45.796875 5.421875 
L 45.796875 25.390625 
Q 45.796875 32.5625 45.484375 35.25 
Q 45.171875 37.9375 44.390625 39.203125 
Q 43.359375 40.921875 41.59375 41.875 
Q 39.84375 42.828125 37.59375 42.828125 
Q 32.125 42.828125 29 38.59375 
Q 25.875 34.375 25.875 26.90625 
L 25.875 0 
L 8.40625 0 
L 8.40625 75.984375 
L 25.875 75.984375 
L 25.875 46.6875 
Q 29.828125 51.46875 34.265625 53.734375 
Q 38.71875 56 44.09375 56 
Q 53.5625 56 58.46875 50.1875 
Q 63.375 44.390625 63.375 33.296875 
z
" id="DejaVuSans-Bold-104"/>
       <path d="M 32.90625 24.609375 
Q 27.4375 24.609375 24.671875 22.75 
Q 21.921875 20.90625 21.921875 17.28125 
Q 21.921875 13.96875 24.140625 12.078125 
Q 26.375 10.203125 30.328125 10.203125 
Q 35.25 10.203125 38.625 13.734375 
Q 42 17.28125 42 22.609375 
L 42 24.609375 
z
M 59.625 31.203125 
L 59.625 0 
L 42 0 
L 42 8.109375 
Q 38.484375 3.125 34.078125 0.84375 
Q 29.6875 -1.421875 23.390625 -1.421875 
Q 14.890625 -1.421875 9.59375 3.53125 
Q 4.296875 8.5 4.296875 16.40625 
Q 4.296875 26.03125 10.90625 30.515625 
Q 17.53125 35.015625 31.6875 35.015625 
L 42 35.015625 
L 42 36.375 
Q 42 40.53125 38.71875 42.453125 
Q 35.453125 44.390625 28.515625 44.390625 
Q 22.90625 44.390625 18.0625 43.265625 
Q 13.234375 42.140625 9.078125 39.890625 
L 9.078125 53.21875 
Q 14.703125 54.59375 20.359375 55.296875 
Q 26.03125 56 31.6875 56 
Q 46.484375 56 53.046875 50.171875 
Q 59.625 44.34375 59.625 31.203125 
z
" id="DejaVuSans-Bold-97"/>
       <path d="M 52.59375 52.984375 
L 52.59375 38.71875 
Q 49.03125 41.15625 45.4375 42.328125 
Q 41.84375 43.5 37.984375 43.5 
Q 30.671875 43.5 26.59375 39.234375 
Q 22.515625 34.96875 22.515625 27.296875 
Q 22.515625 19.625 26.59375 15.34375 
Q 30.671875 11.078125 37.984375 11.078125 
Q 42.09375 11.078125 45.78125 12.296875 
Q 49.46875 13.53125 52.59375 15.921875 
L 52.59375 1.609375 
Q 48.484375 0.09375 44.265625 -0.65625 
Q 40.046875 -1.421875 35.796875 -1.421875 
Q 21 -1.421875 12.640625 6.171875 
Q 4.296875 13.765625 4.296875 27.296875 
Q 4.296875 40.828125 12.640625 48.40625 
Q 21 56 35.796875 56 
Q 40.09375 56 44.265625 55.25 
Q 48.4375 54.5 52.59375 52.984375 
z
" id="DejaVuSans-Bold-99"/>
       <path d="M 49.03125 39.796875 
Q 46.734375 40.875 44.453125 41.375 
Q 42.1875 41.890625 39.890625 41.890625 
Q 33.15625 41.890625 29.515625 37.5625 
Q 25.875 33.25 25.875 25.203125 
L 25.875 0 
L 8.40625 0 
L 8.40625 54.6875 
L 25.875 54.6875 
L 25.875 45.703125 
Q 29.25 51.078125 33.609375 53.53125 
Q 37.984375 56 44.09375 56 
Q 44.96875 56 45.984375 55.921875 
Q 47.015625 55.859375 48.96875 55.609375 
z
" id="DejaVuSans-Bold-114"/>
       <path d="M 0.484375 72.90625 
L 67.671875 72.90625 
L 67.671875 58.6875 
L 43.5 58.6875 
L 43.5 0 
L 24.703125 0 
L 24.703125 58.6875 
L 0.484375 58.6875 
z
" id="DejaVuSans-Bold-84"/>
       <path d="M 1.21875 54.6875 
L 18.703125 54.6875 
L 33.40625 17.578125 
L 45.90625 54.6875 
L 63.375 54.6875 
L 40.375 -5.171875 
Q 36.921875 -14.3125 32.296875 -17.9375 
Q 27.6875 -21.578125 20.125 -21.578125 
L 10.015625 -21.578125 
L 10.015625 -10.109375 
L 15.484375 -10.109375 
Q 19.921875 -10.109375 21.9375 -8.6875 
Q 23.96875 -7.28125 25.09375 -3.609375 
L 25.59375 -2.09375 
z
" id="DejaVuSans-Bold-121"/>
       <path d="M 25.875 7.90625 
L 25.875 -20.796875 
L 8.40625 -20.796875 
L 8.40625 54.6875 
L 25.875 54.6875 
L 25.875 46.6875 
Q 29.5 51.46875 33.890625 53.734375 
Q 38.28125 56 44 56 
Q 54.109375 56 60.59375 47.96875 
Q 67.09375 39.9375 67.09375 27.296875 
Q 67.09375 14.65625 60.59375 6.609375 
Q 54.109375 -1.421875 44 -1.421875 
Q 38.28125 -1.421875 33.890625 0.84375 
Q 29.5 3.125 25.875 7.90625 
z
M 37.5 43.3125 
Q 31.890625 43.3125 28.875 39.1875 
Q 25.875 35.0625 25.875 27.296875 
Q 25.875 19.53125 28.875 15.40625 
Q 31.890625 11.28125 37.5 11.28125 
Q 43.109375 11.28125 46.0625 15.375 
Q 49.03125 19.484375 49.03125 27.296875 
Q 49.03125 35.109375 46.0625 39.203125 
Q 43.109375 43.3125 37.5 43.3125 
z
" id="DejaVuSans-Bold-112"/>
       <path d="M 51.125 52.984375 
L 51.125 39.703125 
Q 45.515625 42.046875 40.28125 43.21875 
Q 35.0625 44.390625 30.421875 44.390625 
Q 25.4375 44.390625 23.015625 43.140625 
Q 20.609375 41.890625 20.609375 39.3125 
Q 20.609375 37.203125 22.4375 36.078125 
Q 24.265625 34.96875 29 34.421875 
L 32.078125 33.984375 
Q 45.515625 32.28125 50.140625 28.375 
Q 54.78125 24.46875 54.78125 16.109375 
Q 54.78125 7.375 48.328125 2.96875 
Q 41.890625 -1.421875 29.109375 -1.421875 
Q 23.6875 -1.421875 17.890625 -0.5625 
Q 12.109375 0.296875 6 2 
L 6 15.28125 
Q 11.234375 12.75 16.71875 11.46875 
Q 22.21875 10.203125 27.875 10.203125 
Q 33.015625 10.203125 35.59375 11.609375 
Q 38.1875 13.03125 38.1875 15.828125 
Q 38.1875 18.171875 36.40625 19.3125 
Q 34.625 20.453125 29.296875 21.09375 
L 26.21875 21.484375 
Q 14.546875 22.953125 9.859375 26.90625 
Q 5.171875 30.859375 5.171875 38.921875 
Q 5.171875 47.609375 11.125 51.796875 
Q 17.09375 56 29.390625 56 
Q 34.234375 56 39.546875 55.265625 
Q 44.875 54.546875 51.125 52.984375 
z
" id="DejaVuSans-Bold-115"/>
       <path d="M 9.1875 72.90625 
L 30.171875 72.90625 
L 56.6875 22.90625 
L 56.6875 72.90625 
L 74.515625 72.90625 
L 74.515625 0 
L 53.515625 0 
L 27 50 
L 27 0 
L 9.1875 0 
z
" id="DejaVuSans-Bold-78"/>
      </defs>
      <use xlink:href="#DejaVuSans-Bold-87"/>
      <use x="110.302734" xlink:href="#DejaVuSans-Bold-105"/>
      <use x="144.580078" xlink:href="#DejaVuSans-Bold-116"/>
      <use x="192.382812" xlink:href="#DejaVuSans-Bold-104"/>
      <use x="263.574219" xlink:href="#DejaVuSans-Bold-105"/>
      <use x="297.851562" xlink:href="#DejaVuSans-Bold-110"/>
      <use x="369.042969" xlink:href="#DejaVuSans-Bold-32"/>
      <use x="403.857422" xlink:href="#DejaVuSans-Bold-67"/>
      <use x="477.246094" xlink:href="#DejaVuSans-Bold-97"/>
      <use x="544.726562" xlink:href="#DejaVuSans-Bold-110"/>
      <use x="615.917969" xlink:href="#DejaVuSans-Bold-99"/>
      <use x="675.195312" xlink:href="#DejaVuSans-Bold-101"/>
      <use x="743.017578" xlink:href="#DejaVuSans-Bold-114"/>
      <use x="792.333984" xlink:href="#DejaVuSans-Bold-32"/>
      <use x="827.148438" xlink:href="#DejaVuSans-Bold-84"/>
      <use x="883.486328" xlink:href="#DejaVuSans-Bold-121"/>
      <use x="948.671875" xlink:href="#DejaVuSans-Bold-112"/>
      <use x="1020.253906" xlink:href="#DejaVuSans-Bold-101"/>
      <use x="1088.076172" xlink:href="#DejaVuSans-Bold-32"/>
      <use x="1122.890625" xlink:href="#DejaVuSans-Bold-84"/>
      <use x="1180.103516" xlink:href="#DejaVuSans-Bold-117"/>
      <use x="1251.294922" xlink:href="#DejaVuSans-Bold-109"/>
      <use x="1355.494141" xlink:href="#DejaVuSans-Bold-111"/>
      <use x="1424.195312" xlink:href="#DejaVuSans-Bold-114"/>
      <use x="1473.511719" xlink:href="#DejaVuSans-Bold-32"/>
      <use x="1508.326172" xlink:href="#DejaVuSans-Bold-118"/>
      <use x="1573.511719" xlink:href="#DejaVuSans-Bold-115"/>
      <use x="1633.033203" xlink:href="#DejaVuSans-Bold-46"/>
      <use x="1671.021484" xlink:href="#DejaVuSans-Bold-32"/>
      <use x="1705.835938" xlink:href="#DejaVuSans-Bold-78"/>
      <use x="1789.527344" xlink:href="#DejaVuSans-Bold-65"/>
      <use x="1859.169922" xlink:href="#DejaVuSans-Bold-84"/>
     </g>
    </g>
    <g id="patch_19">
     <path d="M 44.197188 44.096562 
L 72.197188 44.096562 
L 72.197188 34.296562 
L 44.197188 34.296562 
z
" style="fill:#cb3335;stroke:#4c4c4c;stroke-linejoin:miter;stroke-width:0.875;"/>
    </g>
    <g id="text_21">
     <!-- Between Cancer Type &amp; All Other Types -->
     <g style="fill:#262626;" transform="translate(83.397188 44.096562)scale(0.14 -0.14)">
      <defs>
       <path d="M 3.515625 54.6875 
L 20.515625 54.6875 
L 29.6875 17 
L 38.921875 54.6875 
L 53.515625 54.6875 
L 62.703125 17.390625 
L 71.921875 54.6875 
L 88.921875 54.6875 
L 74.515625 0 
L 55.421875 0 
L 46.1875 37.59375 
L 37.015625 0 
L 17.921875 0 
z
" id="DejaVuSans-Bold-119"/>
       <path d="M 39.015625 48.390625 
L 58.984375 26.421875 
Q 61.578125 29.828125 62.921875 34.078125 
Q 64.265625 38.328125 64.5 43.703125 
L 79.6875 43.703125 
Q 78.953125 34.8125 76.234375 27.875 
Q 73.53125 20.953125 68.703125 15.71875 
L 83.015625 0 
L 62.3125 0 
L 57.515625 5.328125 
Q 52.390625 1.90625 46.71875 0.234375 
Q 41.0625 -1.421875 34.71875 -1.421875 
Q 21.875 -1.421875 13.9375 5.34375 
Q 6 12.109375 6 22.796875 
Q 6 29.9375 9.484375 35.421875 
Q 12.984375 40.921875 20.90625 46.09375 
Q 18.84375 48.6875 17.859375 51.265625 
Q 16.890625 53.859375 16.890625 56.6875 
Q 16.890625 64.65625 23.09375 69.4375 
Q 29.296875 74.21875 39.59375 74.21875 
Q 44.046875 74.21875 48.84375 73.5 
Q 53.65625 72.796875 58.890625 71.390625 
L 58.890625 57.8125 
Q 54.296875 60.15625 50.1875 61.28125 
Q 46.09375 62.40625 42.1875 62.40625 
Q 38.421875 62.40625 36.34375 60.953125 
Q 34.28125 59.515625 34.28125 56.890625 
Q 34.28125 55.21875 35.46875 53.09375 
Q 36.671875 50.984375 39.015625 48.390625 
z
M 29.296875 36.28125 
Q 26.125 33.984375 24.515625 31.078125 
Q 22.90625 28.171875 22.90625 24.703125 
Q 22.90625 19.09375 27.046875 15.140625 
Q 31.203125 11.1875 37.015625 11.1875 
Q 40.28125 11.1875 43.109375 12.1875 
Q 45.953125 13.1875 48.390625 15.1875 
z
" id="DejaVuSans-Bold-38"/>
      </defs>
      <use xlink:href="#DejaVuSans-Bold-66"/>
      <use x="76.220703" xlink:href="#DejaVuSans-Bold-101"/>
      <use x="144.042969" xlink:href="#DejaVuSans-Bold-116"/>
      <use x="191.845703" xlink:href="#DejaVuSans-Bold-119"/>
      <use x="284.228516" xlink:href="#DejaVuSans-Bold-101"/>
      <use x="352.050781" xlink:href="#DejaVuSans-Bold-101"/>
      <use x="419.873047" xlink:href="#DejaVuSans-Bold-110"/>
      <use x="491.064453" xlink:href="#DejaVuSans-Bold-32"/>
      <use x="525.878906" xlink:href="#DejaVuSans-Bold-67"/>
      <use x="599.267578" xlink:href="#DejaVuSans-Bold-97"/>
      <use x="666.748047" xlink:href="#DejaVuSans-Bold-110"/>
      <use x="737.939453" xlink:href="#DejaVuSans-Bold-99"/>
      <use x="797.216797" xlink:href="#DejaVuSans-Bold-101"/>
      <use x="865.039062" xlink:href="#DejaVuSans-Bold-114"/>
      <use x="914.355469" xlink:href="#DejaVuSans-Bold-32"/>
      <use x="949.169922" xlink:href="#DejaVuSans-Bold-84"/>
      <use x="1005.507812" xlink:href="#DejaVuSans-Bold-121"/>
      <use x="1070.693359" xlink:href="#DejaVuSans-Bold-112"/>
      <use x="1142.275391" xlink:href="#DejaVuSans-Bold-101"/>
      <use x="1210.097656" xlink:href="#DejaVuSans-Bold-32"/>
      <use x="1244.912109" xlink:href="#DejaVuSans-Bold-38"/>
      <use x="1332.119141" xlink:href="#DejaVuSans-Bold-32"/>
      <use x="1366.933594" xlink:href="#DejaVuSans-Bold-65"/>
      <use x="1444.326172" xlink:href="#DejaVuSans-Bold-108"/>
      <use x="1478.603516" xlink:href="#DejaVuSans-Bold-108"/>
      <use x="1512.880859" xlink:href="#DejaVuSans-Bold-32"/>
      <use x="1547.695312" xlink:href="#DejaVuSans-Bold-79"/>
      <use x="1632.705078" xlink:href="#DejaVuSans-Bold-116"/>
      <use x="1680.507812" xlink:href="#DejaVuSans-Bold-104"/>
      <use x="1751.699219" xlink:href="#DejaVuSans-Bold-101"/>
      <use x="1819.521484" xlink:href="#DejaVuSans-Bold-114"/>
      <use x="1868.837891" xlink:href="#DejaVuSans-Bold-32"/>
      <use x="1903.652344" xlink:href="#DejaVuSans-Bold-84"/>
      <use x="1959.990234" xlink:href="#DejaVuSans-Bold-121"/>
      <use x="2025.175781" xlink:href="#DejaVuSans-Bold-112"/>
      <use x="2096.757812" xlink:href="#DejaVuSans-Bold-101"/>
      <use x="2164.580078" xlink:href="#DejaVuSans-Bold-115"/>
     </g>
    </g>
   </g>
  </g>
 </g>
 <defs>
  <clipPath id="p2d846a37b1">
   <rect height="262.95538" width="291.525" x="89.902188" y="79.086614"/>
  </clipPath>
 </defs>
</svg>
