<?xml version="1.0" encoding="utf-8" standalone="no"?>
<!DOCTYPE svg PUBLIC "-//W3C//DTD SVG 1.1//EN"
  "http://www.w3.org/Graphics/SVG/1.1/DTD/svg11.dtd">
<!-- Created with matplotlib (https://matplotlib.org/) -->
<svg height="322.177656pt" version="1.1" viewBox="0 0 1746.3025 322.177656" width="1746.3025pt" xmlns="http://www.w3.org/2000/svg" xmlns:xlink="http://www.w3.org/1999/xlink">
 <metadata>
  <rdf:RDF xmlns:cc="http://creativecommons.org/ns#" xmlns:dc="http://purl.org/dc/elements/1.1/" xmlns:rdf="http://www.w3.org/1999/02/22-rdf-syntax-ns#">
   <cc:Work>
    <dc:type rdf:resource="http://purl.org/dc/dcmitype/StillImage"/>
    <dc:date>2021-11-28T12:03:22.175693</dc:date>
    <dc:format>image/svg+xml</dc:format>
    <dc:creator>
     <cc:Agent>
      <dc:title>Matplotlib v3.3.4, https://matplotlib.org/</dc:title>
     </cc:Agent>
    </dc:creator>
   </cc:Work>
  </rdf:RDF>
 </metadata>
 <defs>
  <style type="text/css">*{stroke-linecap:butt;stroke-linejoin:round;}</style>
 </defs>
 <g id="figure_1">
  <g id="patch_1">
   <path d="M 0 322.177656 
L 1746.3025 322.177656 
L 1746.3025 0 
L 0 0 
z
" style="fill:none;"/>
  </g>
  <g id="axes_1">
   <g id="patch_2">
    <path d="M 65.1025 284.318906 
L 826.011591 284.318906 
L 826.011591 12.518906 
L 65.1025 12.518906 
z
" style="fill:#ffffff;"/>
   </g>
   <g id="matplotlib.axis_1">
    <g id="xtick_1">
     <g id="line2d_1">
      <defs>
       <path d="M 0 0 
L 0 10 
" id="mf60120deb8" style="stroke:#000000;stroke-width:2;"/>
      </defs>
      <g>
       <use style="stroke:#000000;stroke-width:2;" x="191.920682" xlink:href="#mf60120deb8" y="284.318906"/>
      </g>
     </g>
     <g id="text_1">
      <!-- fungi -->
      <g transform="translate(171.499276 311.956719)scale(0.14 -0.14)">
       <defs>
        <path d="M 44.390625 75.984375 
L 44.390625 64.5 
L 34.71875 64.5 
Q 31 64.5 29.53125 63.15625 
Q 28.078125 61.8125 28.078125 58.5 
L 28.078125 54.6875 
L 43.015625 54.6875 
L 43.015625 42.1875 
L 28.078125 42.1875 
L 28.078125 0 
L 10.59375 0 
L 10.59375 42.1875 
L 1.90625 42.1875 
L 1.90625 54.6875 
L 10.59375 54.6875 
L 10.59375 58.5 
Q 10.59375 67.4375 15.578125 71.703125 
Q 20.5625 75.984375 31 75.984375 
z
" id="DejaVuSans-Bold-102"/>
        <path d="M 7.8125 21.296875 
L 7.8125 54.6875 
L 25.390625 54.6875 
L 25.390625 49.21875 
Q 25.390625 44.78125 25.34375 38.0625 
Q 25.296875 31.34375 25.296875 29.109375 
Q 25.296875 22.515625 25.640625 19.609375 
Q 25.984375 16.703125 26.8125 15.375 
Q 27.875 13.671875 29.609375 12.734375 
Q 31.34375 11.8125 33.59375 11.8125 
Q 39.0625 11.8125 42.1875 16.015625 
Q 45.3125 20.21875 45.3125 27.6875 
L 45.3125 54.6875 
L 62.796875 54.6875 
L 62.796875 0 
L 45.3125 0 
L 45.3125 7.90625 
Q 41.359375 3.125 36.9375 0.84375 
Q 32.515625 -1.421875 27.203125 -1.421875 
Q 17.71875 -1.421875 12.765625 4.390625 
Q 7.8125 10.203125 7.8125 21.296875 
z
" id="DejaVuSans-Bold-117"/>
        <path d="M 63.375 33.296875 
L 63.375 0 
L 45.796875 0 
L 45.796875 5.421875 
L 45.796875 25.484375 
Q 45.796875 32.5625 45.484375 35.25 
Q 45.171875 37.9375 44.390625 39.203125 
Q 43.359375 40.921875 41.59375 41.875 
Q 39.84375 42.828125 37.59375 42.828125 
Q 32.125 42.828125 29 38.59375 
Q 25.875 34.375 25.875 26.90625 
L 25.875 0 
L 8.40625 0 
L 8.40625 54.6875 
L 25.875 54.6875 
L 25.875 46.6875 
Q 29.828125 51.46875 34.265625 53.734375 
Q 38.71875 56 44.09375 56 
Q 53.5625 56 58.46875 50.1875 
Q 63.375 44.390625 63.375 33.296875 
z
" id="DejaVuSans-Bold-110"/>
        <path d="M 45.609375 9.28125 
Q 42 4.5 37.640625 2.25 
Q 33.296875 0 27.59375 0 
Q 17.578125 0 11.03125 7.875 
Q 4.5 15.765625 4.5 27.984375 
Q 4.5 40.234375 11.03125 48.0625 
Q 17.578125 55.90625 27.59375 55.90625 
Q 33.296875 55.90625 37.640625 53.65625 
Q 42 51.421875 45.609375 46.578125 
L 45.609375 54.6875 
L 63.1875 54.6875 
L 63.1875 5.515625 
Q 63.1875 -7.671875 54.859375 -14.625 
Q 46.53125 -21.578125 30.71875 -21.578125 
Q 25.59375 -21.578125 20.796875 -20.796875 
Q 16.015625 -20.015625 11.1875 -18.40625 
L 11.1875 -4.78125 
Q 15.765625 -7.421875 20.15625 -8.71875 
Q 24.5625 -10.015625 29 -10.015625 
Q 37.59375 -10.015625 41.59375 -6.25 
Q 45.609375 -2.484375 45.609375 5.515625 
z
M 34.078125 43.3125 
Q 28.65625 43.3125 25.625 39.296875 
Q 22.609375 35.296875 22.609375 27.984375 
Q 22.609375 20.453125 25.53125 16.578125 
Q 28.46875 12.703125 34.078125 12.703125 
Q 39.546875 12.703125 42.578125 16.703125 
Q 45.609375 20.703125 45.609375 27.984375 
Q 45.609375 35.296875 42.578125 39.296875 
Q 39.546875 43.3125 34.078125 43.3125 
z
" id="DejaVuSans-Bold-103"/>
        <path d="M 8.40625 54.6875 
L 25.875 54.6875 
L 25.875 0 
L 8.40625 0 
z
M 8.40625 75.984375 
L 25.875 75.984375 
L 25.875 61.71875 
L 8.40625 61.71875 
z
" id="DejaVuSans-Bold-105"/>
       </defs>
       <use xlink:href="#DejaVuSans-Bold-102"/>
       <use x="43.505859" xlink:href="#DejaVuSans-Bold-117"/>
       <use x="114.697266" xlink:href="#DejaVuSans-Bold-110"/>
       <use x="185.888672" xlink:href="#DejaVuSans-Bold-103"/>
       <use x="257.470703" xlink:href="#DejaVuSans-Bold-105"/>
      </g>
     </g>
    </g>
    <g id="xtick_2">
     <g id="line2d_2">
      <g>
       <use style="stroke:#000000;stroke-width:2;" x="445.557045" xlink:href="#mf60120deb8" y="284.318906"/>
      </g>
     </g>
     <g id="text_2">
      <!-- bacteria -->
      <g transform="translate(413.003764 311.956719)scale(0.14 -0.14)">
       <defs>
        <path d="M 37.5 11.28125 
Q 43.109375 11.28125 46.0625 15.375 
Q 49.03125 19.484375 49.03125 27.296875 
Q 49.03125 35.109375 46.0625 39.203125 
Q 43.109375 43.3125 37.5 43.3125 
Q 31.890625 43.3125 28.875 39.1875 
Q 25.875 35.0625 25.875 27.296875 
Q 25.875 19.53125 28.875 15.40625 
Q 31.890625 11.28125 37.5 11.28125 
z
M 25.875 46.6875 
Q 29.5 51.46875 33.890625 53.734375 
Q 38.28125 56 44 56 
Q 54.109375 56 60.59375 47.96875 
Q 67.09375 39.9375 67.09375 27.296875 
Q 67.09375 14.65625 60.59375 6.609375 
Q 54.109375 -1.421875 44 -1.421875 
Q 38.28125 -1.421875 33.890625 0.84375 
Q 29.5 3.125 25.875 7.90625 
L 25.875 0 
L 8.40625 0 
L 8.40625 75.984375 
L 25.875 75.984375 
z
" id="DejaVuSans-Bold-98"/>
        <path d="M 32.90625 24.609375 
Q 27.4375 24.609375 24.671875 22.75 
Q 21.921875 20.90625 21.921875 17.28125 
Q 21.921875 13.96875 24.140625 12.078125 
Q 26.375 10.203125 30.328125 10.203125 
Q 35.25 10.203125 38.625 13.734375 
Q 42 17.28125 42 22.609375 
L 42 24.609375 
z
M 59.625 31.203125 
L 59.625 0 
L 42 0 
L 42 8.109375 
Q 38.484375 3.125 34.078125 0.84375 
Q 29.6875 -1.421875 23.390625 -1.421875 
Q 14.890625 -1.421875 9.59375 3.53125 
Q 4.296875 8.5 4.296875 16.40625 
Q 4.296875 26.03125 10.90625 30.515625 
Q 17.53125 35.015625 31.6875 35.015625 
L 42 35.015625 
L 42 36.375 
Q 42 40.53125 38.71875 42.453125 
Q 35.453125 44.390625 28.515625 44.390625 
Q 22.90625 44.390625 18.0625 43.265625 
Q 13.234375 42.140625 9.078125 39.890625 
L 9.078125 53.21875 
Q 14.703125 54.59375 20.359375 55.296875 
Q 26.03125 56 31.6875 56 
Q 46.484375 56 53.046875 50.171875 
Q 59.625 44.34375 59.625 31.203125 
z
" id="DejaVuSans-Bold-97"/>
        <path d="M 52.59375 52.984375 
L 52.59375 38.71875 
Q 49.03125 41.15625 45.4375 42.328125 
Q 41.84375 43.5 37.984375 43.5 
Q 30.671875 43.5 26.59375 39.234375 
Q 22.515625 34.96875 22.515625 27.296875 
Q 22.515625 19.625 26.59375 15.34375 
Q 30.671875 11.078125 37.984375 11.078125 
Q 42.09375 11.078125 45.78125 12.296875 
Q 49.46875 13.53125 52.59375 15.921875 
L 52.59375 1.609375 
Q 48.484375 0.09375 44.265625 -0.65625 
Q 40.046875 -1.421875 35.796875 -1.421875 
Q 21 -1.421875 12.640625 6.171875 
Q 4.296875 13.765625 4.296875 27.296875 
Q 4.296875 40.828125 12.640625 48.40625 
Q 21 56 35.796875 56 
Q 40.09375 56 44.265625 55.25 
Q 48.4375 54.5 52.59375 52.984375 
z
" id="DejaVuSans-Bold-99"/>
        <path d="M 27.484375 70.21875 
L 27.484375 54.6875 
L 45.515625 54.6875 
L 45.515625 42.1875 
L 27.484375 42.1875 
L 27.484375 19 
Q 27.484375 15.1875 29 13.84375 
Q 30.515625 12.5 35.015625 12.5 
L 44 12.5 
L 44 0 
L 29 0 
Q 18.65625 0 14.328125 4.3125 
Q 10.015625 8.640625 10.015625 19 
L 10.015625 42.1875 
L 1.3125 42.1875 
L 1.3125 54.6875 
L 10.015625 54.6875 
L 10.015625 70.21875 
z
" id="DejaVuSans-Bold-116"/>
        <path d="M 62.984375 27.484375 
L 62.984375 22.515625 
L 22.125 22.515625 
Q 22.75 16.359375 26.5625 13.28125 
Q 30.375 10.203125 37.203125 10.203125 
Q 42.71875 10.203125 48.5 11.84375 
Q 54.296875 13.484375 60.40625 16.796875 
L 60.40625 3.328125 
Q 54.203125 0.984375 48 -0.21875 
Q 41.796875 -1.421875 35.59375 -1.421875 
Q 20.75 -1.421875 12.515625 6.125 
Q 4.296875 13.671875 4.296875 27.296875 
Q 4.296875 40.671875 12.375 48.328125 
Q 20.453125 56 34.625 56 
Q 47.515625 56 55.25 48.234375 
Q 62.984375 40.484375 62.984375 27.484375 
z
M 45.015625 33.296875 
Q 45.015625 38.28125 42.109375 41.328125 
Q 39.203125 44.390625 34.515625 44.390625 
Q 29.4375 44.390625 26.265625 41.53125 
Q 23.09375 38.671875 22.3125 33.296875 
z
" id="DejaVuSans-Bold-101"/>
        <path d="M 49.03125 39.796875 
Q 46.734375 40.875 44.453125 41.375 
Q 42.1875 41.890625 39.890625 41.890625 
Q 33.15625 41.890625 29.515625 37.5625 
Q 25.875 33.25 25.875 25.203125 
L 25.875 0 
L 8.40625 0 
L 8.40625 54.6875 
L 25.875 54.6875 
L 25.875 45.703125 
Q 29.25 51.078125 33.609375 53.53125 
Q 37.984375 56 44.09375 56 
Q 44.96875 56 45.984375 55.921875 
Q 47.015625 55.859375 48.96875 55.609375 
z
" id="DejaVuSans-Bold-114"/>
       </defs>
       <use xlink:href="#DejaVuSans-Bold-98"/>
       <use x="71.582031" xlink:href="#DejaVuSans-Bold-97"/>
       <use x="139.0625" xlink:href="#DejaVuSans-Bold-99"/>
       <use x="198.339844" xlink:href="#DejaVuSans-Bold-116"/>
       <use x="246.142578" xlink:href="#DejaVuSans-Bold-101"/>
       <use x="313.964844" xlink:href="#DejaVuSans-Bold-114"/>
       <use x="363.28125" xlink:href="#DejaVuSans-Bold-105"/>
       <use x="397.558594" xlink:href="#DejaVuSans-Bold-97"/>
      </g>
     </g>
    </g>
    <g id="xtick_3">
     <g id="line2d_3">
      <g>
       <use style="stroke:#000000;stroke-width:2;" x="699.193409" xlink:href="#mf60120deb8" y="284.318906"/>
      </g>
     </g>
     <g id="text_3">
      <!-- immune -->
      <g transform="translate(667.491065 311.956719)scale(0.14 -0.14)">
       <defs>
        <path d="M 59.078125 45.609375 
Q 62.40625 50.6875 66.96875 53.34375 
Q 71.53125 56 77 56 
Q 86.421875 56 91.359375 50.1875 
Q 96.296875 44.390625 96.296875 33.296875 
L 96.296875 0 
L 78.71875 0 
L 78.71875 28.515625 
Q 78.765625 29.15625 78.78125 29.828125 
Q 78.8125 30.515625 78.8125 31.78125 
Q 78.8125 37.59375 77.09375 40.203125 
Q 75.390625 42.828125 71.578125 42.828125 
Q 66.609375 42.828125 63.890625 38.71875 
Q 61.1875 34.625 61.078125 26.859375 
L 61.078125 0 
L 43.5 0 
L 43.5 28.515625 
Q 43.5 37.59375 41.9375 40.203125 
Q 40.375 42.828125 36.375 42.828125 
Q 31.34375 42.828125 28.609375 38.703125 
Q 25.875 34.578125 25.875 26.90625 
L 25.875 0 
L 8.296875 0 
L 8.296875 54.6875 
L 25.875 54.6875 
L 25.875 46.6875 
Q 29.109375 51.3125 33.28125 53.65625 
Q 37.453125 56 42.484375 56 
Q 48.140625 56 52.484375 53.265625 
Q 56.84375 50.53125 59.078125 45.609375 
z
" id="DejaVuSans-Bold-109"/>
       </defs>
       <use xlink:href="#DejaVuSans-Bold-105"/>
       <use x="34.277344" xlink:href="#DejaVuSans-Bold-109"/>
       <use x="138.476562" xlink:href="#DejaVuSans-Bold-109"/>
       <use x="242.675781" xlink:href="#DejaVuSans-Bold-117"/>
       <use x="313.867188" xlink:href="#DejaVuSans-Bold-110"/>
       <use x="385.058594" xlink:href="#DejaVuSans-Bold-101"/>
      </g>
     </g>
    </g>
   </g>
   <g id="matplotlib.axis_2">
    <g id="ytick_1">
     <g id="line2d_4">
      <defs>
       <path d="M 0 0 
L -10 0 
" id="m37b78e6774" style="stroke:#000000;stroke-width:2;"/>
      </defs>
      <g>
       <use style="stroke:#000000;stroke-width:2;" x="65.1025" xlink:href="#m37b78e6774" y="284.318906"/>
      </g>
     </g>
     <g id="text_4">
      <!-- 0 -->
      <g transform="translate(38.361563 289.637812)scale(0.14 -0.14)">
       <defs>
        <path d="M 46 36.53125 
Q 46 50.203125 43.4375 55.78125 
Q 40.875 61.375 34.8125 61.375 
Q 28.765625 61.375 26.171875 55.78125 
Q 23.578125 50.203125 23.578125 36.53125 
Q 23.578125 22.703125 26.171875 17.03125 
Q 28.765625 11.375 34.8125 11.375 
Q 40.828125 11.375 43.40625 17.03125 
Q 46 22.703125 46 36.53125 
z
M 64.796875 36.375 
Q 64.796875 18.265625 56.984375 8.421875 
Q 49.171875 -1.421875 34.8125 -1.421875 
Q 20.40625 -1.421875 12.59375 8.421875 
Q 4.78125 18.265625 4.78125 36.375 
Q 4.78125 54.546875 12.59375 64.375 
Q 20.40625 74.21875 34.8125 74.21875 
Q 49.171875 74.21875 56.984375 64.375 
Q 64.796875 54.546875 64.796875 36.375 
z
" id="DejaVuSans-Bold-48"/>
       </defs>
       <use xlink:href="#DejaVuSans-Bold-48"/>
      </g>
     </g>
    </g>
    <g id="ytick_2">
     <g id="line2d_5">
      <g>
       <use style="stroke:#000000;stroke-width:2;" x="65.1025" xlink:href="#m37b78e6774" y="227.693906"/>
      </g>
     </g>
     <g id="text_5">
      <!-- 5 -->
      <g transform="translate(38.361563 233.012812)scale(0.14 -0.14)">
       <defs>
        <path d="M 10.59375 72.90625 
L 57.328125 72.90625 
L 57.328125 59.078125 
L 25.59375 59.078125 
L 25.59375 47.796875 
Q 27.734375 48.390625 29.90625 48.703125 
Q 32.078125 49.03125 34.421875 49.03125 
Q 47.75 49.03125 55.171875 42.359375 
Q 62.59375 35.6875 62.59375 23.78125 
Q 62.59375 11.96875 54.515625 5.265625 
Q 46.4375 -1.421875 32.078125 -1.421875 
Q 25.875 -1.421875 19.796875 -0.21875 
Q 13.71875 0.984375 7.71875 3.421875 
L 7.71875 18.21875 
Q 13.671875 14.796875 19.015625 13.078125 
Q 24.359375 11.375 29.109375 11.375 
Q 35.9375 11.375 39.859375 14.71875 
Q 43.796875 18.0625 43.796875 23.78125 
Q 43.796875 29.546875 39.859375 32.859375 
Q 35.9375 36.1875 29.109375 36.1875 
Q 25.046875 36.1875 20.453125 35.125 
Q 15.875 34.078125 10.59375 31.890625 
z
" id="DejaVuSans-Bold-53"/>
       </defs>
       <use xlink:href="#DejaVuSans-Bold-53"/>
      </g>
     </g>
    </g>
    <g id="ytick_3">
     <g id="line2d_6">
      <g>
       <use style="stroke:#000000;stroke-width:2;" x="65.1025" xlink:href="#m37b78e6774" y="171.068906"/>
      </g>
     </g>
     <g id="text_6">
      <!-- 10 -->
      <g transform="translate(28.620625 176.387812)scale(0.14 -0.14)">
       <defs>
        <path d="M 11.71875 12.984375 
L 28.328125 12.984375 
L 28.328125 60.109375 
L 11.28125 56.59375 
L 11.28125 69.390625 
L 28.21875 72.90625 
L 46.09375 72.90625 
L 46.09375 12.984375 
L 62.703125 12.984375 
L 62.703125 0 
L 11.71875 0 
z
" id="DejaVuSans-Bold-49"/>
       </defs>
       <use xlink:href="#DejaVuSans-Bold-49"/>
       <use x="69.580078" xlink:href="#DejaVuSans-Bold-48"/>
      </g>
     </g>
    </g>
    <g id="ytick_4">
     <g id="line2d_7">
      <g>
       <use style="stroke:#000000;stroke-width:2;" x="65.1025" xlink:href="#m37b78e6774" y="114.443906"/>
      </g>
     </g>
     <g id="text_7">
      <!-- 15 -->
      <g transform="translate(28.620625 119.762812)scale(0.14 -0.14)">
       <use xlink:href="#DejaVuSans-Bold-49"/>
       <use x="69.580078" xlink:href="#DejaVuSans-Bold-53"/>
      </g>
     </g>
    </g>
    <g id="ytick_5">
     <g id="line2d_8">
      <g>
       <use style="stroke:#000000;stroke-width:2;" x="65.1025" xlink:href="#m37b78e6774" y="57.818906"/>
      </g>
     </g>
     <g id="text_8">
      <!-- 20 -->
      <g transform="translate(28.620625 63.137812)scale(0.14 -0.14)">
       <defs>
        <path d="M 28.8125 13.8125 
L 60.890625 13.8125 
L 60.890625 0 
L 7.90625 0 
L 7.90625 13.8125 
L 34.515625 37.3125 
Q 38.09375 40.53125 39.796875 43.609375 
Q 41.5 46.6875 41.5 50 
Q 41.5 55.125 38.0625 58.25 
Q 34.625 61.375 28.90625 61.375 
Q 24.515625 61.375 19.28125 59.5 
Q 14.0625 57.625 8.109375 53.90625 
L 8.109375 69.921875 
Q 14.453125 72.015625 20.65625 73.109375 
Q 26.859375 74.21875 32.8125 74.21875 
Q 45.90625 74.21875 53.15625 68.453125 
Q 60.40625 62.703125 60.40625 52.390625 
Q 60.40625 46.4375 57.328125 41.28125 
Q 54.25 36.140625 44.390625 27.484375 
z
" id="DejaVuSans-Bold-50"/>
       </defs>
       <use xlink:href="#DejaVuSans-Bold-50"/>
       <use x="69.580078" xlink:href="#DejaVuSans-Bold-48"/>
      </g>
     </g>
    </g>
    <g id="text_9">
     <!-- total features -->
     <g transform="translate(20.877188 218.198437)rotate(-90)scale(0.18 -0.18)">
      <defs>
       <path d="M 34.421875 43.5 
Q 28.609375 43.5 25.5625 39.328125 
Q 22.515625 35.15625 22.515625 27.296875 
Q 22.515625 19.4375 25.5625 15.25 
Q 28.609375 11.078125 34.421875 11.078125 
Q 40.140625 11.078125 43.15625 15.25 
Q 46.1875 19.4375 46.1875 27.296875 
Q 46.1875 35.15625 43.15625 39.328125 
Q 40.140625 43.5 34.421875 43.5 
z
M 34.421875 56 
Q 48.53125 56 56.46875 48.375 
Q 64.40625 40.765625 64.40625 27.296875 
Q 64.40625 13.8125 56.46875 6.1875 
Q 48.53125 -1.421875 34.421875 -1.421875 
Q 20.265625 -1.421875 12.28125 6.1875 
Q 4.296875 13.8125 4.296875 27.296875 
Q 4.296875 40.765625 12.28125 48.375 
Q 20.265625 56 34.421875 56 
z
" id="DejaVuSans-Bold-111"/>
       <path d="M 8.40625 75.984375 
L 25.875 75.984375 
L 25.875 0 
L 8.40625 0 
z
" id="DejaVuSans-Bold-108"/>
       <path id="DejaVuSans-Bold-32"/>
       <path d="M 51.125 52.984375 
L 51.125 39.703125 
Q 45.515625 42.046875 40.28125 43.21875 
Q 35.0625 44.390625 30.421875 44.390625 
Q 25.4375 44.390625 23.015625 43.140625 
Q 20.609375 41.890625 20.609375 39.3125 
Q 20.609375 37.203125 22.4375 36.078125 
Q 24.265625 34.96875 29 34.421875 
L 32.078125 33.984375 
Q 45.515625 32.28125 50.140625 28.375 
Q 54.78125 24.46875 54.78125 16.109375 
Q 54.78125 7.375 48.328125 2.96875 
Q 41.890625 -1.421875 29.109375 -1.421875 
Q 23.6875 -1.421875 17.890625 -0.5625 
Q 12.109375 0.296875 6 2 
L 6 15.28125 
Q 11.234375 12.75 16.71875 11.46875 
Q 22.21875 10.203125 27.875 10.203125 
Q 33.015625 10.203125 35.59375 11.609375 
Q 38.1875 13.03125 38.1875 15.828125 
Q 38.1875 18.171875 36.40625 19.3125 
Q 34.625 20.453125 29.296875 21.09375 
L 26.21875 21.484375 
Q 14.546875 22.953125 9.859375 26.90625 
Q 5.171875 30.859375 5.171875 38.921875 
Q 5.171875 47.609375 11.125 51.796875 
Q 17.09375 56 29.390625 56 
Q 34.234375 56 39.546875 55.265625 
Q 44.875 54.546875 51.125 52.984375 
z
" id="DejaVuSans-Bold-115"/>
      </defs>
      <use xlink:href="#DejaVuSans-Bold-116"/>
      <use x="47.802734" xlink:href="#DejaVuSans-Bold-111"/>
      <use x="116.503906" xlink:href="#DejaVuSans-Bold-116"/>
      <use x="164.306641" xlink:href="#DejaVuSans-Bold-97"/>
      <use x="231.787109" xlink:href="#DejaVuSans-Bold-108"/>
      <use x="266.064453" xlink:href="#DejaVuSans-Bold-32"/>
      <use x="300.878906" xlink:href="#DejaVuSans-Bold-102"/>
      <use x="344.384766" xlink:href="#DejaVuSans-Bold-101"/>
      <use x="412.207031" xlink:href="#DejaVuSans-Bold-97"/>
      <use x="479.6875" xlink:href="#DejaVuSans-Bold-116"/>
      <use x="527.490234" xlink:href="#DejaVuSans-Bold-117"/>
      <use x="598.681641" xlink:href="#DejaVuSans-Bold-114"/>
      <use x="647.998047" xlink:href="#DejaVuSans-Bold-101"/>
      <use x="715.820312" xlink:href="#DejaVuSans-Bold-115"/>
     </g>
    </g>
   </g>
   <g id="patch_3">
    <path clip-path="url(#pe683bf2811)" d="M 90.466136 284.318906 
L 158.1025 284.318906 
L 158.1025 239.018906 
L 90.466136 239.018906 
z
" style="fill:#3274a1;"/>
   </g>
   <g id="patch_4">
    <path clip-path="url(#pe683bf2811)" d="M 344.1025 284.318906 
L 411.738864 284.318906 
L 411.738864 23.843906 
L 344.1025 23.843906 
z
" style="fill:#3274a1;"/>
   </g>
   <g id="patch_5">
    <path clip-path="url(#pe683bf2811)" d="M 597.738864 284.318906 
L 665.375227 284.318906 
L 665.375227 205.043906 
L 597.738864 205.043906 
z
" style="fill:#3274a1;"/>
   </g>
   <g id="patch_6">
    <path clip-path="url(#pe683bf2811)" d="M 158.1025 284.318906 
L 225.738864 284.318906 
L 225.738864 261.668906 
L 158.1025 261.668906 
z
" style="fill:#df7f20;"/>
   </g>
   <g id="patch_7">
    <path clip-path="url(#pe683bf2811)" d="M 411.738864 284.318906 
L 479.375227 284.318906 
L 479.375227 216.368906 
L 411.738864 216.368906 
z
" style="fill:#df7f20;"/>
   </g>
   <g id="patch_8">
    <path clip-path="url(#pe683bf2811)" d="M 665.375227 284.318906 
L 733.011591 284.318906 
L 733.011591 216.368906 
L 665.375227 216.368906 
z
" style="fill:#df7f20;"/>
   </g>
   <g id="patch_9">
    <path clip-path="url(#pe683bf2811)" d="M 225.738864 284.318906 
L 293.375227 284.318906 
L 293.375227 80.468906 
L 225.738864 80.468906 
z
" style="fill:#cb3335;"/>
   </g>
   <g id="patch_10">
    <path clip-path="url(#pe683bf2811)" d="M 479.375227 284.318906 
L 547.011591 284.318906 
L 547.011591 114.443906 
L 479.375227 114.443906 
z
" style="fill:#cb3335;"/>
   </g>
   <g id="patch_11">
    <path clip-path="url(#pe683bf2811)" d="M 733.011591 284.318906 
L 800.647955 284.318906 
L 800.647955 182.393906 
L 733.011591 182.393906 
z
" style="fill:#cb3335;"/>
   </g>
   <g id="line2d_9">
    <path clip-path="url(#pe683bf2811)" d="M 0 0 
" style="fill:none;stroke:#424242;stroke-linecap:round;stroke-width:1.8;"/>
   </g>
   <g id="line2d_10">
    <path clip-path="url(#pe683bf2811)" d="M 0 0 
" style="fill:none;stroke:#424242;stroke-linecap:round;stroke-width:1.8;"/>
   </g>
   <g id="line2d_11">
    <path clip-path="url(#pe683bf2811)" d="M 0 0 
" style="fill:none;stroke:#424242;stroke-linecap:round;stroke-width:1.8;"/>
   </g>
   <g id="line2d_12">
    <path clip-path="url(#pe683bf2811)" d="M 0 0 
" style="fill:none;stroke:#424242;stroke-linecap:round;stroke-width:1.8;"/>
   </g>
   <g id="line2d_13">
    <path clip-path="url(#pe683bf2811)" d="M 0 0 
" style="fill:none;stroke:#424242;stroke-linecap:round;stroke-width:1.8;"/>
   </g>
   <g id="line2d_14">
    <path clip-path="url(#pe683bf2811)" d="M 0 0 
" style="fill:none;stroke:#424242;stroke-linecap:round;stroke-width:1.8;"/>
   </g>
   <g id="line2d_15">
    <path clip-path="url(#pe683bf2811)" d="M 0 0 
" style="fill:none;stroke:#424242;stroke-linecap:round;stroke-width:1.8;"/>
   </g>
   <g id="line2d_16">
    <path clip-path="url(#pe683bf2811)" d="M 0 0 
" style="fill:none;stroke:#424242;stroke-linecap:round;stroke-width:1.8;"/>
   </g>
   <g id="line2d_17">
    <path clip-path="url(#pe683bf2811)" d="M 0 0 
" style="fill:none;stroke:#424242;stroke-linecap:round;stroke-width:1.8;"/>
   </g>
   <g id="patch_12">
    <path d="M 65.1025 284.318906 
L 65.1025 12.518906 
" style="fill:none;stroke:#000000;stroke-linecap:square;stroke-linejoin:miter;stroke-width:3;"/>
   </g>
  </g>
  <g id="axes_2">
   <g id="patch_13">
    <path d="M 978.193409 284.318906 
L 1739.1025 284.318906 
L 1739.1025 12.518906 
L 978.193409 12.518906 
z
" style="fill:#ffffff;"/>
   </g>
   <g id="matplotlib.axis_3">
    <g id="xtick_4">
     <g id="line2d_18">
      <g>
       <use style="stroke:#000000;stroke-width:2;" x="1105.011591" xlink:href="#mf60120deb8" y="284.318906"/>
      </g>
     </g>
     <g id="text_10">
      <!-- fungi -->
      <g transform="translate(1084.590185 311.956719)scale(0.14 -0.14)">
       <use xlink:href="#DejaVuSans-Bold-102"/>
       <use x="43.505859" xlink:href="#DejaVuSans-Bold-117"/>
       <use x="114.697266" xlink:href="#DejaVuSans-Bold-110"/>
       <use x="185.888672" xlink:href="#DejaVuSans-Bold-103"/>
       <use x="257.470703" xlink:href="#DejaVuSans-Bold-105"/>
      </g>
     </g>
    </g>
    <g id="xtick_5">
     <g id="line2d_19">
      <g>
       <use style="stroke:#000000;stroke-width:2;" x="1358.647955" xlink:href="#mf60120deb8" y="284.318906"/>
      </g>
     </g>
     <g id="text_11">
      <!-- bacteria -->
      <g transform="translate(1326.094673 311.956719)scale(0.14 -0.14)">
       <use xlink:href="#DejaVuSans-Bold-98"/>
       <use x="71.582031" xlink:href="#DejaVuSans-Bold-97"/>
       <use x="139.0625" xlink:href="#DejaVuSans-Bold-99"/>
       <use x="198.339844" xlink:href="#DejaVuSans-Bold-116"/>
       <use x="246.142578" xlink:href="#DejaVuSans-Bold-101"/>
       <use x="313.964844" xlink:href="#DejaVuSans-Bold-114"/>
       <use x="363.28125" xlink:href="#DejaVuSans-Bold-105"/>
       <use x="397.558594" xlink:href="#DejaVuSans-Bold-97"/>
      </g>
     </g>
    </g>
    <g id="xtick_6">
     <g id="line2d_20">
      <g>
       <use style="stroke:#000000;stroke-width:2;" x="1612.284318" xlink:href="#mf60120deb8" y="284.318906"/>
      </g>
     </g>
     <g id="text_12">
      <!-- immune -->
      <g transform="translate(1580.581974 311.956719)scale(0.14 -0.14)">
       <use xlink:href="#DejaVuSans-Bold-105"/>
       <use x="34.277344" xlink:href="#DejaVuSans-Bold-109"/>
       <use x="138.476562" xlink:href="#DejaVuSans-Bold-109"/>
       <use x="242.675781" xlink:href="#DejaVuSans-Bold-117"/>
       <use x="313.867188" xlink:href="#DejaVuSans-Bold-110"/>
       <use x="385.058594" xlink:href="#DejaVuSans-Bold-101"/>
      </g>
     </g>
    </g>
   </g>
   <g id="matplotlib.axis_4">
    <g id="ytick_6">
     <g id="line2d_21">
      <g>
       <use style="stroke:#000000;stroke-width:2;" x="978.193409" xlink:href="#m37b78e6774" y="284.318906"/>
      </g>
     </g>
     <g id="text_13">
      <!-- 0 -->
      <g transform="translate(951.452472 289.637812)scale(0.14 -0.14)">
       <use xlink:href="#DejaVuSans-Bold-48"/>
      </g>
     </g>
    </g>
    <g id="ytick_7">
     <g id="line2d_22">
      <g>
       <use style="stroke:#000000;stroke-width:2;" x="978.193409" xlink:href="#m37b78e6774" y="229.958906"/>
      </g>
     </g>
     <g id="text_14">
      <!-- 20 -->
      <g transform="translate(941.711534 235.277812)scale(0.14 -0.14)">
       <use xlink:href="#DejaVuSans-Bold-50"/>
       <use x="69.580078" xlink:href="#DejaVuSans-Bold-48"/>
      </g>
     </g>
    </g>
    <g id="ytick_8">
     <g id="line2d_23">
      <g>
       <use style="stroke:#000000;stroke-width:2;" x="978.193409" xlink:href="#m37b78e6774" y="175.598906"/>
      </g>
     </g>
     <g id="text_15">
      <!-- 40 -->
      <g transform="translate(941.711534 180.917812)scale(0.14 -0.14)">
       <defs>
        <path d="M 36.8125 57.421875 
L 16.21875 26.90625 
L 36.8125 26.90625 
z
M 33.6875 72.90625 
L 54.59375 72.90625 
L 54.59375 26.90625 
L 64.984375 26.90625 
L 64.984375 13.28125 
L 54.59375 13.28125 
L 54.59375 0 
L 36.8125 0 
L 36.8125 13.28125 
L 4.5 13.28125 
L 4.5 29.390625 
z
" id="DejaVuSans-Bold-52"/>
       </defs>
       <use xlink:href="#DejaVuSans-Bold-52"/>
       <use x="69.580078" xlink:href="#DejaVuSans-Bold-48"/>
      </g>
     </g>
    </g>
    <g id="ytick_9">
     <g id="line2d_24">
      <g>
       <use style="stroke:#000000;stroke-width:2;" x="978.193409" xlink:href="#m37b78e6774" y="121.238906"/>
      </g>
     </g>
     <g id="text_16">
      <!-- 60 -->
      <g transform="translate(941.711534 126.557813)scale(0.14 -0.14)">
       <defs>
        <path d="M 36.1875 35.984375 
Q 31.25 35.984375 28.78125 32.78125 
Q 26.3125 29.59375 26.3125 23.1875 
Q 26.3125 16.796875 28.78125 13.59375 
Q 31.25 10.40625 36.1875 10.40625 
Q 41.15625 10.40625 43.625 13.59375 
Q 46.09375 16.796875 46.09375 23.1875 
Q 46.09375 29.59375 43.625 32.78125 
Q 41.15625 35.984375 36.1875 35.984375 
z
M 59.421875 71 
L 59.421875 57.515625 
Q 54.78125 59.71875 50.671875 60.765625 
Q 46.578125 61.8125 42.671875 61.8125 
Q 34.28125 61.8125 29.59375 57.140625 
Q 24.90625 52.484375 24.125 43.3125 
Q 27.34375 45.703125 31.09375 46.890625 
Q 34.859375 48.09375 39.3125 48.09375 
Q 50.484375 48.09375 57.34375 41.546875 
Q 64.203125 35.015625 64.203125 24.421875 
Q 64.203125 12.703125 56.53125 5.640625 
Q 48.875 -1.421875 35.984375 -1.421875 
Q 21.78125 -1.421875 13.984375 8.171875 
Q 6.203125 17.78125 6.203125 35.40625 
Q 6.203125 53.46875 15.3125 63.796875 
Q 24.421875 74.125 40.28125 74.125 
Q 45.3125 74.125 50.046875 73.34375 
Q 54.78125 72.5625 59.421875 71 
z
" id="DejaVuSans-Bold-54"/>
       </defs>
       <use xlink:href="#DejaVuSans-Bold-54"/>
       <use x="69.580078" xlink:href="#DejaVuSans-Bold-48"/>
      </g>
     </g>
    </g>
    <g id="ytick_10">
     <g id="line2d_25">
      <g>
       <use style="stroke:#000000;stroke-width:2;" x="978.193409" xlink:href="#m37b78e6774" y="66.878906"/>
      </g>
     </g>
     <g id="text_17">
      <!-- 80 -->
      <g transform="translate(941.711534 72.197812)scale(0.14 -0.14)">
       <defs>
        <path d="M 34.8125 32.625 
Q 29.546875 32.625 26.703125 29.734375 
Q 23.875 26.859375 23.875 21.484375 
Q 23.875 16.109375 26.703125 13.25 
Q 29.546875 10.40625 34.8125 10.40625 
Q 40.046875 10.40625 42.828125 13.25 
Q 45.609375 16.109375 45.609375 21.484375 
Q 45.609375 26.90625 42.828125 29.765625 
Q 40.046875 32.625 34.8125 32.625 
z
M 21.09375 38.8125 
Q 14.453125 40.828125 11.078125 44.96875 
Q 7.71875 49.125 7.71875 55.328125 
Q 7.71875 64.546875 14.59375 69.375 
Q 21.484375 74.21875 34.8125 74.21875 
Q 48.046875 74.21875 54.921875 69.40625 
Q 61.8125 64.59375 61.8125 55.328125 
Q 61.8125 49.125 58.421875 44.96875 
Q 55.03125 40.828125 48.390625 38.8125 
Q 55.8125 36.765625 59.59375 32.15625 
Q 63.375 27.546875 63.375 20.515625 
Q 63.375 9.671875 56.171875 4.125 
Q 48.96875 -1.421875 34.8125 -1.421875 
Q 20.609375 -1.421875 13.359375 4.125 
Q 6.109375 9.671875 6.109375 20.515625 
Q 6.109375 27.546875 9.890625 32.15625 
Q 13.671875 36.765625 21.09375 38.8125 
z
M 25.484375 53.421875 
Q 25.484375 49.078125 27.90625 46.734375 
Q 30.328125 44.390625 34.8125 44.390625 
Q 39.203125 44.390625 41.59375 46.734375 
Q 44 49.078125 44 53.421875 
Q 44 57.765625 41.59375 60.078125 
Q 39.203125 62.40625 34.8125 62.40625 
Q 30.328125 62.40625 27.90625 60.0625 
Q 25.484375 57.71875 25.484375 53.421875 
z
" id="DejaVuSans-Bold-56"/>
       </defs>
       <use xlink:href="#DejaVuSans-Bold-56"/>
       <use x="69.580078" xlink:href="#DejaVuSans-Bold-48"/>
      </g>
     </g>
    </g>
    <g id="ytick_11">
     <g id="line2d_26">
      <g>
       <use style="stroke:#000000;stroke-width:2;" x="978.193409" xlink:href="#m37b78e6774" y="12.518906"/>
      </g>
     </g>
     <g id="text_18">
      <!-- 100 -->
      <g transform="translate(931.970597 17.837812)scale(0.14 -0.14)">
       <use xlink:href="#DejaVuSans-Bold-49"/>
       <use x="69.580078" xlink:href="#DejaVuSans-Bold-48"/>
       <use x="139.160156" xlink:href="#DejaVuSans-Bold-48"/>
      </g>
     </g>
    </g>
    <g id="text_19">
     <!-- % prevelence -->
     <g transform="translate(924.227159 216.562969)rotate(-90)scale(0.18 -0.18)">
      <defs>
       <path d="M 77.484375 30.078125 
Q 74.03125 30.078125 72.125 27.078125 
Q 70.21875 24.078125 70.21875 18.5 
Q 70.21875 12.890625 72.09375 9.890625 
Q 73.96875 6.890625 77.484375 6.890625 
Q 81 6.890625 82.859375 9.890625 
Q 84.71875 12.890625 84.71875 18.5 
Q 84.71875 24.078125 82.828125 27.078125 
Q 80.953125 30.078125 77.484375 30.078125 
z
M 77.484375 38.28125 
Q 86.578125 38.28125 91.796875 33 
Q 97.015625 27.734375 97.015625 18.5 
Q 97.015625 9.28125 91.796875 3.921875 
Q 86.578125 -1.421875 77.484375 -1.421875 
Q 68.40625 -1.421875 63.15625 3.921875 
Q 57.90625 9.28125 57.90625 18.5 
Q 57.90625 27.6875 63.15625 32.984375 
Q 68.40625 38.28125 77.484375 38.28125 
z
M 32.71875 -1.421875 
L 21.921875 -1.421875 
L 67.484375 74.21875 
L 78.328125 74.21875 
z
M 22.703125 74.21875 
Q 31.78125 74.21875 36.984375 68.921875 
Q 42.1875 63.625 42.1875 54.390625 
Q 42.1875 45.171875 36.984375 39.84375 
Q 31.78125 34.515625 22.703125 34.515625 
Q 13.625 34.515625 8.421875 39.84375 
Q 3.21875 45.171875 3.21875 54.390625 
Q 3.21875 63.625 8.421875 68.921875 
Q 13.625 74.21875 22.703125 74.21875 
z
M 22.703125 66.015625 
Q 19.1875 66.015625 17.28125 62.984375 
Q 15.375 59.96875 15.375 54.390625 
Q 15.375 48.78125 17.28125 45.71875 
Q 19.1875 42.671875 22.703125 42.671875 
Q 26.21875 42.671875 28.09375 45.71875 
Q 29.984375 48.78125 29.984375 54.390625 
Q 29.984375 59.96875 28.078125 62.984375 
Q 26.171875 66.015625 22.703125 66.015625 
z
" id="DejaVuSans-Bold-37"/>
       <path d="M 25.875 7.90625 
L 25.875 -20.796875 
L 8.40625 -20.796875 
L 8.40625 54.6875 
L 25.875 54.6875 
L 25.875 46.6875 
Q 29.5 51.46875 33.890625 53.734375 
Q 38.28125 56 44 56 
Q 54.109375 56 60.59375 47.96875 
Q 67.09375 39.9375 67.09375 27.296875 
Q 67.09375 14.65625 60.59375 6.609375 
Q 54.109375 -1.421875 44 -1.421875 
Q 38.28125 -1.421875 33.890625 0.84375 
Q 29.5 3.125 25.875 7.90625 
z
M 37.5 43.3125 
Q 31.890625 43.3125 28.875 39.1875 
Q 25.875 35.0625 25.875 27.296875 
Q 25.875 19.53125 28.875 15.40625 
Q 31.890625 11.28125 37.5 11.28125 
Q 43.109375 11.28125 46.0625 15.375 
Q 49.03125 19.484375 49.03125 27.296875 
Q 49.03125 35.109375 46.0625 39.203125 
Q 43.109375 43.3125 37.5 43.3125 
z
" id="DejaVuSans-Bold-112"/>
       <path d="M 1.515625 54.6875 
L 19 54.6875 
L 32.625 16.890625 
L 46.1875 54.6875 
L 63.71875 54.6875 
L 42.1875 0 
L 23 0 
z
" id="DejaVuSans-Bold-118"/>
      </defs>
      <use xlink:href="#DejaVuSans-Bold-37"/>
      <use x="100.195312" xlink:href="#DejaVuSans-Bold-32"/>
      <use x="135.009766" xlink:href="#DejaVuSans-Bold-112"/>
      <use x="206.591797" xlink:href="#DejaVuSans-Bold-114"/>
      <use x="255.908203" xlink:href="#DejaVuSans-Bold-101"/>
      <use x="323.730469" xlink:href="#DejaVuSans-Bold-118"/>
      <use x="388.916016" xlink:href="#DejaVuSans-Bold-101"/>
      <use x="456.738281" xlink:href="#DejaVuSans-Bold-108"/>
      <use x="491.015625" xlink:href="#DejaVuSans-Bold-101"/>
      <use x="558.837891" xlink:href="#DejaVuSans-Bold-110"/>
      <use x="630.029297" xlink:href="#DejaVuSans-Bold-99"/>
      <use x="689.306641" xlink:href="#DejaVuSans-Bold-101"/>
     </g>
    </g>
   </g>
   <g id="patch_14">
    <path clip-path="url(#p629a7f1b0a)" d="M 1003.557045 284.318906 
L 1071.193409 284.318906 
L 1071.193409 126.643697 
L 1003.557045 126.643697 
z
" style="fill:#3274a1;"/>
   </g>
   <g id="patch_15">
    <path clip-path="url(#p629a7f1b0a)" d="M 1257.193409 284.318906 
L 1324.829773 284.318906 
L 1324.829773 77.67492 
L 1257.193409 77.67492 
z
" style="fill:#3274a1;"/>
   </g>
   <g id="patch_16">
    <path clip-path="url(#p629a7f1b0a)" d="M 1510.829773 284.318906 
L 1578.466136 284.318906 
L 1578.466136 71.450788 
L 1510.829773 71.450788 
z
" style="fill:#3274a1;"/>
   </g>
   <g id="patch_17">
    <path clip-path="url(#p629a7f1b0a)" d="M 1071.193409 284.318906 
L 1138.829773 284.318906 
L 1138.829773 147.780545 
L 1071.193409 147.780545 
z
" style="fill:#df7f20;"/>
   </g>
   <g id="patch_18">
    <path clip-path="url(#p629a7f1b0a)" d="M 1324.829773 284.318906 
L 1392.466136 284.318906 
L 1392.466136 132.318019 
L 1324.829773 132.318019 
z
" style="fill:#df7f20;"/>
   </g>
   <g id="patch_19">
    <path clip-path="url(#p629a7f1b0a)" d="M 1578.466136 284.318906 
L 1646.1025 284.318906 
L 1646.1025 82.975065 
L 1578.466136 82.975065 
z
" style="fill:#df7f20;"/>
   </g>
   <g id="patch_20">
    <path clip-path="url(#p629a7f1b0a)" d="M 1138.829773 284.318906 
L 1206.466136 284.318906 
L 1206.466136 216.936338 
L 1138.829773 216.936338 
z
" style="fill:#cb3335;"/>
   </g>
   <g id="patch_21">
    <path clip-path="url(#p629a7f1b0a)" d="M 1392.466136 284.318906 
L 1460.1025 284.318906 
L 1460.1025 154.821432 
L 1392.466136 154.821432 
z
" style="fill:#cb3335;"/>
   </g>
   <g id="patch_22">
    <path clip-path="url(#p629a7f1b0a)" d="M 1646.1025 284.318906 
L 1713.738864 284.318906 
L 1713.738864 214.067654 
L 1646.1025 214.067654 
z
" style="fill:#cb3335;"/>
   </g>
   <g id="line2d_27">
    <path clip-path="url(#p629a7f1b0a)" d="M 1037.375227 186.578718 
L 1037.375227 47.6997 
" style="fill:none;stroke:#424242;stroke-linecap:round;stroke-width:1.8;"/>
   </g>
   <g id="line2d_28">
    <path clip-path="url(#p629a7f1b0a)" d="M 1291.011591 101.803584 
L 1291.011591 51.976565 
" style="fill:none;stroke:#424242;stroke-linecap:round;stroke-width:1.8;"/>
   </g>
   <g id="line2d_29">
    <path clip-path="url(#p629a7f1b0a)" d="M 1544.647955 97.23298 
L 1544.647955 47.20269 
" style="fill:none;stroke:#424242;stroke-linecap:round;stroke-width:1.8;"/>
   </g>
   <g id="line2d_30">
    <path clip-path="url(#p629a7f1b0a)" d="M 1105.011591 215.092184 
L 1105.011591 80.468906 
" style="fill:none;stroke:#424242;stroke-linecap:round;stroke-width:1.8;"/>
   </g>
   <g id="line2d_31">
    <path clip-path="url(#p629a7f1b0a)" d="M 1358.647955 167.8771 
L 1358.647955 96.021867 
" style="fill:none;stroke:#424242;stroke-linecap:round;stroke-width:1.8;"/>
   </g>
   <g id="line2d_32">
    <path clip-path="url(#p629a7f1b0a)" d="M 1612.284318 115.155561 
L 1612.284318 45.737921 
" style="fill:none;stroke:#424242;stroke-linecap:round;stroke-width:1.8;"/>
   </g>
   <g id="line2d_33">
    <path clip-path="url(#p629a7f1b0a)" d="M 1172.647955 237.713615 
L 1172.647955 192.818896 
" style="fill:none;stroke:#424242;stroke-linecap:round;stroke-width:1.8;"/>
   </g>
   <g id="line2d_34">
    <path clip-path="url(#p629a7f1b0a)" d="M 1426.284318 167.192635 
L 1426.284318 142.788561 
" style="fill:none;stroke:#424242;stroke-linecap:round;stroke-width:1.8;"/>
   </g>
   <g id="line2d_35">
    <path clip-path="url(#p629a7f1b0a)" d="M 1679.920682 241.056145 
L 1679.920682 184.172254 
" style="fill:none;stroke:#424242;stroke-linecap:round;stroke-width:1.8;"/>
   </g>
   <g id="patch_23">
    <path d="M 978.193409 284.318906 
L 978.193409 12.518906 
" style="fill:none;stroke:#000000;stroke-linecap:square;stroke-linejoin:miter;stroke-width:3;"/>
   </g>
  </g>
 </g>
 <defs>
  <clipPath id="pe683bf2811">
   <rect height="271.8" width="760.909091" x="65.1025" y="12.518906"/>
  </clipPath>
  <clipPath id="p629a7f1b0a">
   <rect height="271.8" width="760.909091" x="978.193409" y="12.518906"/>
  </clipPath>
 </defs>
</svg>
